<?xml version="1.0" encoding="UTF-8"?>
<svg id="_레이어_2" data-name="레이어_2" xmlns="http://www.w3.org/2000/svg" xmlns:xlink="http://www.w3.org/1999/xlink" viewBox="0 0 88.01 88.01">
  <defs>
    <style>
      .cls-1 {
        fill: #231815;
      }

      .cls-2 {
        fill: url(#_무제_그라디언트_11);
      }
    </style>
    <linearGradient id="_무제_그라디언트_11" data-name="무제 그라디언트 11" x1="43.41" y1="1.56" x2="44.61" y2="87.35" gradientUnits="userSpaceOnUse">
      <stop offset="0" stop-color="#df87af"/>
      <stop offset=".2" stop-color="#dd9db8"/>
      <stop offset=".53" stop-color="#dcbcc5"/>
      <stop offset=".81" stop-color="#dbd0ce"/>
      <stop offset="1" stop-color="#dbd7d1"/>
    </linearGradient>
  </defs>
  <g id="_레이어_1-2" data-name="레이어_1">
    <g>
      <path class="cls-2" d="M88.01,44.01c0,3.79-3.85,7.02-4.79,10.51s.73,8.33-1.1,11.5-6.81,4.09-9.41,6.7-3.49,7.56-6.7,9.41-7.88.14-11.5,1.1-6.72,4.79-10.51,4.79-7.02-3.85-10.51-4.79-8.33.73-11.5-1.1-4.09-6.81-6.7-9.41-7.56-3.49-9.41-6.7-.14-7.88-1.1-11.5S0,47.79,0,44.01s3.85-7.02,4.79-10.51-.73-8.33,1.1-11.5,6.81-4.09,9.41-6.7,3.49-7.56,6.7-9.41,7.88-.14,11.5-1.1c3.49-.93,6.72-4.79,10.51-4.79s7.02,3.85,10.51,4.79,8.33-.73,11.5,1.1,4.09,6.81,6.7,9.41,7.56,3.49,9.41,6.7.14,7.88,1.1,11.5,4.79,6.72,4.79,10.51Z"/>
      <g>
        <path class="cls-1" d="M24.38,27.77c0,.11,0,.21,0,.28,0,.07.02.13.04.18.02.04.06.08.11.11.05.03.12.05.21.07.05.02.1.02.15.02.06,0,.1,0,.14.02s.07.03.1.05c.02.02.04.06.04.12,0,.1-.08.15-.23.15-.08,0-.19,0-.34-.03-.15-.02-.34-.03-.57-.03s-.42,0-.57.03c-.16.02-.27.03-.35.03-.16,0-.23-.06-.23-.17,0-.05.01-.08.04-.11.03-.02.06-.03.1-.04s.09-.01.14-.01.1,0,.16-.02c.08-.02.15-.04.2-.07.05-.02.09-.06.11-.11.03-.05.04-.11.04-.18,0-.07,0-.17,0-.29v-4.86c0-.17-.01-.29-.04-.35-.03-.06-.09-.11-.2-.14-.07-.02-.14-.03-.2-.03-.06,0-.11,0-.15-.01-.05,0-.08-.02-.11-.04s-.04-.06-.04-.11c0-.1.05-.15.16-.15.08,0,.19.02.34.04s.34.04.57.04c.25,0,.46-.01.62-.04.16-.03.27-.04.34-.04.11,0,.16.05.16.15,0,.05-.01.08-.03.1-.02.02-.05.03-.1.04s-.09.01-.15.02c-.06,0-.12.01-.18.03-.13.03-.21.08-.24.14-.02.07-.04.18-.04.36v4.86Z"/>
        <path class="cls-1" d="M25.88,24.26l-.32-2.36s-.01-.07-.02-.11c0-.04,0-.07,0-.11,0-.34.14-.51.41-.51s.41.17.41.5v.11s0,.07-.01.12l-.32,2.36h-.16Z"/>
        <path class="cls-1" d="M27.9,28.11c0,.15.03.25.08.3.06.05.12.09.19.11s.13.03.19.04c.06.01.09.04.09.1,0,.05-.01.08-.04.09-.03.01-.07.02-.12.02s-.14,0-.25-.02c-.11-.01-.26-.02-.43-.02-.15,0-.29,0-.41.02s-.23.02-.31.02c-.06,0-.11,0-.14-.02s-.04-.04-.04-.09c0-.06.03-.09.1-.1.06-.01.13-.03.21-.05.08-.02.15-.06.21-.11.06-.05.1-.15.1-.29v-5.62c0-.32-.11-.48-.33-.48,0,0-.02,0-.04,0-.02,0-.04,0-.08,0-.05,0-.07-.03-.07-.1,0-.08.04-.12.13-.14s.18-.04.3-.07c.18-.06.32-.13.41-.2.09-.07.16-.1.19-.1.05,0,.07.08.07.23v6.46Z"/>
        <path class="cls-1" d="M29.69,28.11c0,.15.03.25.08.3.06.05.12.09.19.11s.13.03.19.04c.06.01.09.04.09.1,0,.05-.01.08-.04.09-.03.01-.07.02-.12.02s-.14,0-.25-.02c-.11-.01-.26-.02-.43-.02-.15,0-.29,0-.41.02s-.23.02-.31.02c-.06,0-.11,0-.14-.02s-.04-.04-.04-.09c0-.06.03-.09.1-.1.06-.01.13-.03.21-.05.08-.02.15-.06.21-.11.06-.05.1-.15.1-.29v-5.62c0-.32-.11-.48-.33-.48,0,0-.02,0-.04,0-.02,0-.04,0-.08,0-.05,0-.07-.03-.07-.1,0-.08.04-.12.13-.14s.18-.04.3-.07c.18-.06.32-.13.41-.2.09-.07.16-.1.19-.1.05,0,.07.08.07.23v6.46Z"/>
        <path class="cls-1" d="M33.3,28.81c0,.36-.04.68-.11.97-.08.28-.23.56-.46.83-.14.16-.27.29-.39.37s-.2.12-.24.12c-.06,0-.09-.04-.09-.11,0-.06.04-.13.11-.2.07-.07.15-.16.23-.26.16-.21.26-.43.3-.66s.06-.5.06-.8v-3.76c0-.18-.02-.31-.06-.39s-.11-.12-.23-.12h-.09c-.1,0-.15-.03-.15-.11s.04-.12.12-.15c.08-.03.17-.08.27-.16.2-.11.34-.22.43-.31.09-.09.16-.14.2-.14.03,0,.06.01.06.04,0,.03.01.08.01.15v4.68ZM33.25,22.24c.07.11.11.23.11.37s-.04.25-.11.36c-.07.1-.16.15-.27.15-.1,0-.19-.05-.26-.15-.07-.1-.11-.22-.11-.36s.04-.26.11-.37c.07-.11.16-.16.26-.16s.19.05.26.16Z"/>
        <path class="cls-1" d="M35.04,26.88c0,.55.07.97.21,1.24.14.28.4.41.77.41s.66-.15.83-.46c.17-.31.26-.77.26-1.39v-1.93c0-.14-.03-.24-.09-.3-.06-.06-.12-.1-.19-.12s-.13-.03-.19-.04c-.06,0-.08-.04-.08-.1,0-.05,0-.08.03-.09.02-.01.04-.02.08-.02.03,0,.07,0,.14.01.06,0,.15.01.25.01.12,0,.22,0,.3-.01.08,0,.14-.01.18-.01.08,0,.12.02.13.06.01.04.02.13.02.28v3.49c0,.15.02.25.06.3.04.05.09.08.14.08.05,0,.1.01.14.01.05,0,.07.02.07.07,0,.06-.04.1-.12.13-.08.03-.17.08-.28.13-.13.07-.23.14-.31.21s-.14.1-.2.1c-.04,0-.07-.02-.08-.07-.01-.05-.02-.11-.02-.19v-.5c0-.09-.01-.13-.03-.13-.03,0-.07.05-.13.15-.06.1-.15.21-.3.33-.14.13-.28.22-.43.29-.14.07-.3.1-.48.1-.24,0-.46-.06-.65-.18-.19-.12-.34-.29-.44-.5-.1-.19-.16-.39-.18-.6-.02-.2-.03-.42-.03-.65v-2.29c0-.14-.03-.24-.09-.3-.06-.06-.12-.1-.19-.12s-.13-.03-.19-.04c-.06,0-.08-.04-.08-.1,0-.05,0-.08.03-.09.02-.01.04-.02.08-.02.01,0,.06,0,.14.01.08,0,.2.01.34.01.08,0,.14,0,.2-.01.06,0,.12-.01.17-.01.08,0,.12.02.14.05.02.04.03.13.03.29v2.44Z"/>
        <path class="cls-1" d="M40.54,23.94c.12.03.22.06.28.11.06.05.1.1.11.16.01.06.02.13.02.2v.44c0,.14-.03.21-.1.21s-.1-.04-.11-.13-.06-.21-.15-.37c-.09-.16-.21-.27-.34-.35-.13-.08-.28-.12-.43-.12-.2,0-.38.07-.52.22-.14.15-.21.33-.21.57,0,.25.07.44.21.58.14.14.35.28.64.42.18.09.35.18.5.26s.28.18.38.29c.11.11.19.23.25.38s.09.33.09.55c0,.5-.14.9-.41,1.19-.28.29-.67.44-1.17.44-.14,0-.28-.02-.42-.04s-.26-.07-.37-.12c-.11-.05-.2-.11-.27-.18s-.11-.14-.11-.23c0-.06,0-.16.01-.31s.01-.35.01-.6c0-.12.04-.18.12-.18.06,0,.1.06.12.16.02.11.06.29.12.54.07.25.17.45.29.58.12.13.32.2.58.2.3,0,.54-.1.72-.29.18-.19.27-.45.27-.77,0-.28-.08-.5-.23-.66s-.39-.31-.71-.46c-.39-.18-.68-.37-.86-.56-.19-.19-.28-.44-.28-.75,0-.4.13-.73.38-.99.25-.25.61-.38,1.07-.38.22,0,.39.01.51.04Z"/>
        <path class="cls-1" d="M42.59,23.91c0,.07,0,.12.03.14.02.03.06.04.12.04h.79c.06,0,.1,0,.12.03.01.02.02.06.02.11v.04c0,.06,0,.11-.03.14-.02.03-.06.04-.11.04h-.8c-.06,0-.1.01-.12.04-.02.02-.03.07-.03.14v3.1c0,.54.17.81.51.81.09,0,.18-.02.25-.06.08-.04.15-.09.21-.13.06-.04.11-.09.15-.13.04-.04.07-.06.1-.06.03,0,.04.03.04.08,0,.03-.03.09-.08.17-.05.08-.13.16-.22.24-.1.08-.21.16-.33.22-.12.06-.25.1-.39.1-.28,0-.49-.11-.64-.33s-.23-.54-.23-.97v-.5l.03-2.54c0-.07,0-.12-.03-.14-.02-.02-.06-.04-.12-.04h-.16c-.11,0-.16-.03-.16-.1,0-.06.06-.12.17-.21.11-.08.24-.21.4-.4.16-.18.26-.34.31-.48.05-.13.1-.2.15-.2.03,0,.04.04.04.13v.71Z"/>
        <path class="cls-1" d="M46.85,26.4c.48-.83.9-1.46,1.24-1.88.35-.42.67-.63.96-.63.36,0,.54.25.54.74,0,.08,0,.19-.03.34-.02.15-.05.32-.11.51l-.23.91c.47-.83.88-1.46,1.23-1.89.35-.42.69-.63,1-.63.17,0,.31.06.41.18.1.12.15.3.15.53,0,.09-.01.21-.04.36-.03.15-.07.33-.13.53l-.73,2.42c-.02.08-.03.14-.03.19,0,.15.05.22.15.22.11,0,.21-.05.32-.15.11-.1.24-.26.38-.48.11-.18.19-.31.24-.39.04-.08.08-.12.12-.12.04,0,.06.03.06.1,0,.03-.04.12-.11.26s-.19.33-.35.56c-.19.27-.38.47-.57.61s-.36.21-.51.21c-.26,0-.39-.17-.39-.52,0-.1.01-.22.04-.37s.07-.31.12-.5l.7-2.32c.04-.11.06-.21.07-.3.01-.09.02-.16.02-.21,0-.21-.09-.32-.27-.32-.09,0-.2.05-.34.15-.13.1-.28.26-.44.46-.16.2-.33.45-.5.75-.18.3-.35.65-.53,1.04-.17.38-.32.74-.44,1.08-.12.34-.2.59-.23.75-.01.08-.03.13-.06.15-.02.02-.09.04-.19.04h-.15c-.15,0-.22-.04-.22-.12,0-.04,0-.07.02-.11.01-.04.02-.09.04-.14l.17-.54c.29-.95.49-1.69.61-2.23s.17-.85.17-.92c0-.24-.09-.36-.27-.36-.08,0-.2.06-.33.17-.14.11-.29.27-.46.48-.17.21-.34.46-.53.77-.18.3-.36.65-.54,1.04-.21.47-.36.88-.45,1.21-.09.34-.15.56-.19.66-.03.07-.13.11-.32.11-.1,0-.17,0-.21-.02s-.06-.05-.06-.11c0-.04.01-.1.03-.18l.7-2.45c.21-.7.31-1.18.31-1.42,0-.13-.05-.19-.15-.19-.09,0-.18.05-.28.15-.09.1-.18.21-.25.32-.08.12-.15.22-.21.32-.06.1-.11.15-.15.15-.01,0-.03-.01-.04-.03-.01-.02-.02-.05-.02-.07,0-.04.03-.11.1-.23.07-.12.17-.27.31-.45.37-.49.69-.73.97-.73.1,0,.19.04.25.13.07.09.1.22.1.4,0,.28-.1.74-.29,1.36l-.19.65Z"/>
        <path class="cls-1" d="M56.02,27.44c-.04.15-.07.27-.09.36-.01.09-.02.15-.02.18,0,.15.04.22.12.22.12,0,.29-.15.5-.45.09-.13.15-.23.18-.3.03-.07.07-.11.13-.11.04,0,.05.02.05.07,0,.15-.11.38-.34.7-.39.57-.73.85-1.03.85-.23,0-.34-.15-.34-.46,0-.18.02-.36.07-.55.05-.19.1-.38.15-.59l.32-1.18c-.53.91-1,1.6-1.4,2.06-.4.46-.78.69-1.14.69-.26,0-.47-.1-.63-.3-.16-.2-.23-.49-.23-.86s.09-.8.27-1.24.46-.89.83-1.36c.35-.45.72-.78,1.09-.99s.7-.32.98-.32c.19,0,.34.04.46.11s.2.11.25.11c.03,0,.05-.02.08-.05.03-.03.05-.07.09-.11.03-.04.08-.07.13-.11.05-.03.12-.05.2-.05.1,0,.17,0,.2.03s.05.07.05.14c0,.05-.02.13-.05.23l-.89,3.24ZM54.7,24.49c-.32.27-.64.67-.96,1.23-.25.43-.43.82-.55,1.17-.12.35-.18.64-.18.89,0,.2.05.36.14.47.09.11.21.16.35.16.2,0,.42-.12.65-.36.24-.24.51-.59.83-1.06.74-1.09,1.11-1.84,1.11-2.25,0-.2-.05-.36-.16-.48-.11-.11-.25-.17-.45-.17-.2,0-.47.13-.79.4Z"/>
        <path class="cls-1" d="M58.22,26.25c.86-1.61,1.65-2.41,2.36-2.41.2,0,.38.08.53.25.15.17.22.4.22.7,0,.26-.05.49-.16.71-.11.22-.26.41-.47.58-.21.17-.47.31-.77.43-.3.11-.65.19-1.05.23.18.1.31.22.39.35.07.13.14.29.21.45l.18.47c.08.2.17.35.28.46.11.11.22.16.34.16.11,0,.2-.04.26-.12.06-.08.09-.19.09-.32,0-.06-.02-.1-.05-.14-.03-.04-.07-.08-.11-.11-.04-.04-.07-.07-.11-.11-.03-.04-.05-.09-.05-.15s.02-.12.06-.16.09-.07.14-.07c.09,0,.17.05.24.16.07.11.11.25.11.44,0,.24-.08.44-.25.61-.17.17-.37.25-.61.25-.3,0-.54-.11-.73-.32s-.36-.55-.5-.99c-.07-.23-.14-.4-.22-.52s-.2-.19-.37-.2c-.09.16-.15.33-.2.49-.05.17-.1.33-.15.5l-.19.71c-.03.09-.06.15-.1.19-.04.03-.14.05-.31.05-.13,0-.2-.04-.2-.13,0-.02,0-.06.01-.1,0-.04.02-.1.03-.16l1.55-5.93c.03-.09.05-.17.05-.24s.01-.12.01-.17c0-.06-.02-.1-.06-.14-.04-.03-.1-.05-.18-.05-.02,0-.04,0-.07,0-.02,0-.05,0-.07,0-.11,0-.17-.04-.17-.11,0-.04.02-.07.05-.09s.08-.03.13-.04c.06,0,.13-.01.21-.02.08,0,.17-.02.27-.04.2-.04.34-.09.44-.16.09-.07.17-.11.23-.11.04,0,.05.03.05.08v.04s0,.04-.02.07l-1.3,4.72ZM58.48,26.59c.05,0,.11.01.16.01.28,0,.54-.06.79-.17.25-.11.46-.25.65-.43.18-.17.33-.37.44-.58s.16-.42.16-.62c0-.15-.04-.27-.13-.36-.09-.09-.19-.14-.3-.14-.22,0-.51.18-.87.55s-.71.94-1.07,1.71c.06,0,.11.01.17.02Z"/>
        <path class="cls-1" d="M62.1,27.22c0,.4.09.7.26.91.17.21.4.32.67.32.38,0,.75-.22,1.11-.65.11-.13.17-.23.2-.32.03-.09.07-.13.14-.13.04,0,.06.03.06.11,0,.06-.03.14-.08.25s-.14.23-.25.38c-.46.59-.94.89-1.43.89-.19,0-.37-.04-.54-.13-.17-.09-.31-.21-.44-.37s-.22-.35-.29-.58-.11-.48-.11-.75c0-.39.08-.78.22-1.17s.37-.77.66-1.12c.27-.33.55-.58.85-.74s.58-.25.85-.25c.32,0,.58.1.78.3.2.2.3.45.3.76,0,.52-.25.94-.74,1.25-.5.31-1.23.51-2.21.58-.02.23-.03.38-.03.46ZM63.86,25.95c.39-.33.59-.74.59-1.23,0-.2-.05-.36-.14-.48-.1-.12-.22-.18-.39-.18s-.33.05-.49.16c-.17.11-.33.26-.48.47-.16.21-.3.46-.44.77-.14.3-.25.65-.35,1.04.74-.03,1.31-.22,1.7-.55Z"/>
        <path class="cls-1" d="M27.51,38.22c-.33.92-.55,1.62-.67,2.09-.12.47-.19.74-.21.79-.04.12-.06.22-.08.3-.02.08-.04.14-.07.19s-.08.08-.14.1-.16.03-.28.03c-.13,0-.22-.03-.27-.09-.05-.06-.08-.15-.08-.27s.01-.2.04-.25c.03-.05.07-.08.12-.11.05-.02.11-.03.19-.03.08,0,.17,0,.27-.02.06,0,.1-.04.13-.12s.07-.17.12-.31c.11-.3.18-.56.22-.76.04-.2.06-.33.06-.4,0-.06-.03-.16-.07-.31l-1.2-3.78c-.04-.12-.09-.2-.15-.24-.06-.04-.11-.07-.17-.08-.06-.01-.1-.03-.14-.04-.04-.01-.06-.04-.06-.1,0-.05,0-.08.03-.09.02-.01.05-.02.1-.02.04,0,.1,0,.2.02.1.01.23.02.41.02.23,0,.41,0,.54-.02.13-.01.23-.02.29-.02.09,0,.14.03.14.11,0,.05-.03.08-.08.1-.05.02-.11.03-.17.05-.06.01-.12.04-.17.06-.05.03-.08.07-.08.14,0,.08.01.16.03.25.02.09.05.19.09.31l.75,2.56c.03.09.05.14.07.14.03,0,.06-.05.1-.15l.81-2.5c.03-.08.05-.17.08-.26.02-.09.04-.2.04-.31,0-.09-.03-.15-.09-.18-.06-.03-.12-.05-.19-.06s-.13-.02-.19-.04c-.06-.02-.09-.05-.09-.11,0-.05.01-.08.04-.09.02-.01.06-.02.12-.02.03,0,.1,0,.2.02s.25.02.44.02c.17,0,.3,0,.4-.02s.16-.02.18-.02c.08,0,.12.03.12.11,0,.08-.03.12-.07.12s-.13.03-.25.09c-.08.03-.15.11-.21.21-.06.11-.13.26-.2.47l-.89,2.52Z"/>
        <path class="cls-1" d="M31.89,34.7c.27.12.49.29.67.51.18.22.32.49.41.8.1.31.14.65.14,1.03s-.05.73-.15,1.05c-.1.32-.24.58-.43.81s-.42.4-.69.51c-.27.12-.57.18-.91.18-.3,0-.58-.06-.83-.19-.25-.12-.46-.3-.64-.52-.18-.22-.32-.49-.41-.8-.1-.31-.15-.65-.15-1.03s.05-.73.15-1.04c.1-.31.25-.58.43-.8s.41-.39.66-.51c.25-.12.53-.18.83-.18.33,0,.63.06.9.18ZM29.96,35.29c-.26.39-.39.95-.39,1.7,0,.38.04.71.11,1.01.07.3.17.55.3.76.13.21.28.37.45.48.17.11.36.16.57.16.45,0,.81-.19,1.06-.57.25-.38.38-.93.38-1.67,0-.78-.13-1.38-.39-1.81-.26-.43-.6-.64-1.04-.64s-.8.19-1.06.58Z"/>
        <path class="cls-1" d="M34.44,37.49c0,.55.07.97.21,1.24.14.28.4.41.77.41s.66-.15.83-.46c.17-.31.26-.77.26-1.39v-1.93c0-.14-.03-.24-.09-.3-.06-.06-.12-.1-.19-.12s-.13-.03-.19-.04c-.06,0-.08-.04-.08-.1,0-.05,0-.08.03-.09.02-.01.04-.02.08-.02.03,0,.07,0,.14.01.06,0,.15.01.25.01.12,0,.22,0,.3-.01.08,0,.14-.01.18-.01.08,0,.12.02.13.06.01.04.02.13.02.28v3.49c0,.15.02.25.06.3.04.05.09.08.14.08.05,0,.1.01.14.01.05,0,.07.02.07.07,0,.06-.04.1-.12.13-.08.03-.17.08-.28.13-.13.07-.23.14-.31.21s-.14.1-.2.1c-.04,0-.07-.02-.08-.07-.01-.05-.02-.11-.02-.19v-.5c0-.09-.01-.13-.03-.13-.03,0-.07.05-.13.15-.06.1-.15.21-.3.33-.14.13-.28.22-.43.29-.14.07-.3.1-.48.1-.24,0-.46-.06-.65-.18-.19-.12-.34-.29-.44-.5-.1-.19-.16-.39-.18-.6-.02-.2-.03-.42-.03-.65v-2.29c0-.14-.03-.24-.09-.3-.06-.06-.12-.1-.19-.12s-.13-.03-.19-.04c-.06,0-.08-.04-.08-.1,0-.05,0-.08.03-.09.02-.01.04-.02.08-.02.01,0,.06,0,.14.01.08,0,.2.01.34.01.08,0,.14,0,.2-.01.06,0,.12-.01.17-.01.08,0,.12.02.14.05.02.04.03.13.03.29v2.44Z"/>
        <path class="cls-1" d="M40.28,36.94c.42-.81.8-1.42,1.15-1.82.35-.4.69-.6,1.03-.6.26,0,.48.12.64.35s.25.56.25.98c0,.39-.07.81-.2,1.26s-.32.86-.57,1.23c-.27.41-.58.72-.93.93-.35.21-.72.32-1.1.32-.33,0-.6-.11-.79-.34s-.3-.54-.3-.94c0-.22.03-.49.1-.8.06-.31.15-.68.27-1.1l.87-3.33c.05-.18.07-.32.07-.41,0-.05-.02-.09-.06-.13-.04-.04-.1-.06-.18-.06-.02,0-.04,0-.06,0-.02,0-.04,0-.06,0-.11,0-.16-.04-.16-.11,0-.1.07-.14.22-.14.17,0,.31-.02.43-.05.12-.03.21-.06.29-.1.08-.04.14-.07.18-.1s.09-.05.12-.05.05.03.05.08c0,0,0,.02,0,.04s0,.04-.02.08l-1.24,4.8ZM42.58,35.2c-.09-.12-.2-.18-.33-.18-.22,0-.44.12-.67.35-.23.23-.49.58-.78,1.05-.3.49-.53.92-.67,1.29s-.21.68-.21.92c0,.5.21.75.64.75.25,0,.49-.09.73-.28.24-.19.47-.47.68-.85.13-.24.24-.47.33-.71s.18-.46.24-.68c.06-.22.11-.43.14-.62.03-.19.04-.36.04-.5,0-.24-.04-.41-.13-.54Z"/>
        <path class="cls-1" d="M44.17,37.83c0,.4.09.7.26.91.17.21.4.32.67.32.38,0,.75-.22,1.11-.65.11-.13.17-.23.2-.32.03-.09.07-.13.14-.13.04,0,.06.03.06.11,0,.06-.03.14-.08.25s-.14.23-.25.38c-.46.59-.94.89-1.43.89-.19,0-.37-.04-.54-.13-.17-.09-.31-.21-.44-.37s-.22-.35-.29-.58-.11-.48-.11-.75c0-.39.08-.78.22-1.17s.37-.77.66-1.12c.27-.33.55-.58.85-.74s.58-.25.85-.25c.32,0,.58.1.78.3.2.2.3.45.3.76,0,.52-.25.94-.74,1.25-.5.31-1.23.51-2.21.58-.02.23-.03.38-.03.46ZM45.93,36.57c.39-.33.59-.74.59-1.23,0-.2-.05-.36-.14-.48-.1-.12-.22-.18-.39-.18s-.33.05-.49.16c-.17.11-.33.26-.48.47-.16.21-.3.46-.44.77-.14.3-.25.65-.35,1.04.74-.03,1.31-.22,1.7-.55Z"/>
        <path class="cls-1" d="M47.87,38.32c-.03.11-.05.19-.06.26s-.02.12-.02.16c0,.13.05.2.16.2.16,0,.39-.26.69-.79.06-.11.11-.18.13-.23.03-.05.05-.07.08-.07.04,0,.06.03.06.07,0,.06-.04.17-.12.31s-.2.33-.36.57-.32.41-.5.53c-.18.12-.33.18-.46.18-.25,0-.37-.16-.37-.47s.07-.76.22-1.31l1.3-4.66c.05-.18.07-.32.07-.41,0-.06-.02-.1-.06-.14-.04-.03-.1-.05-.18-.05-.02,0-.04,0-.06,0-.02,0-.04,0-.06,0-.11,0-.17-.04-.17-.11,0-.04.01-.07.04-.09s.07-.03.13-.04c.06,0,.13-.01.21-.02s.17-.02.27-.04c.2-.04.34-.09.44-.16.09-.07.17-.11.23-.11.03,0,.05.03.05.1,0,.04-.02.07-.03.11l-1.63,6.18Z"/>
        <path class="cls-1" d="M50.1,38.37c-.06.21-.1.35-.1.41,0,.15.05.22.15.22.18,0,.37-.18.57-.54.11-.19.19-.33.23-.42s.07-.13.1-.13c.05,0,.07.03.07.07,0,.12-.14.4-.43.83-.16.25-.33.43-.49.56-.16.12-.32.18-.46.18-.28,0-.43-.18-.43-.53,0-.18.04-.41.12-.68s.18-.6.32-.98l.44-1.28c.06-.19.12-.35.16-.49s.06-.26.06-.36c0-.08,0-.13-.03-.17-.02-.04-.06-.05-.12-.05-.09,0-.17.04-.25.13-.09.09-.17.19-.24.3-.07.11-.14.21-.2.3-.06.09-.1.13-.13.13-.04,0-.05-.03-.05-.1,0-.03.03-.1.08-.2.06-.11.15-.24.28-.4.36-.45.68-.68.95-.68.12,0,.22.04.29.12s.11.19.11.33-.03.31-.07.49c-.05.18-.11.37-.18.58l-.75,2.36ZM50.99,32.86c.1-.15.22-.22.34-.22.09,0,.17.03.22.11.06.07.08.16.08.28,0,.21-.05.38-.15.53-.1.15-.21.22-.34.22-.1,0-.18-.04-.23-.12-.06-.08-.08-.19-.08-.33,0-.17.05-.33.15-.47Z"/>
        <path class="cls-1" d="M52.19,37.83c0,.4.09.7.26.91.17.21.4.32.67.32.38,0,.75-.22,1.11-.65.11-.13.17-.23.2-.32.03-.09.07-.13.14-.13.04,0,.06.03.06.11,0,.06-.03.14-.08.25s-.14.23-.25.38c-.46.59-.94.89-1.43.89-.19,0-.37-.04-.54-.13-.17-.09-.31-.21-.44-.37s-.22-.35-.29-.58-.11-.48-.11-.75c0-.39.08-.78.22-1.17s.37-.77.66-1.12c.27-.33.55-.58.85-.74s.58-.25.85-.25c.32,0,.58.1.78.3.2.2.3.45.3.76,0,.52-.25.94-.74,1.25-.5.31-1.23.51-2.21.58-.02.23-.03.38-.03.46ZM53.94,36.57c.39-.33.59-.74.59-1.23,0-.2-.05-.36-.14-.48-.1-.12-.22-.18-.39-.18s-.33.05-.49.16c-.17.11-.33.26-.48.47-.16.21-.3.46-.44.77-.14.3-.25.65-.35,1.04.74-.03,1.31-.22,1.7-.55Z"/>
        <path class="cls-1" d="M56.15,35.7c.06-.19.1-.34.1-.45s-.04-.16-.13-.16c-.08,0-.15.04-.23.13-.07.09-.15.19-.21.3-.07.11-.13.21-.2.3s-.12.13-.18.13c-.03,0-.04-.02-.04-.07,0-.06.03-.13.1-.23.06-.1.15-.22.27-.38.18-.25.35-.44.49-.56.15-.13.3-.19.46-.19.1,0,.18.04.25.11s.1.17.1.3c0,.14-.02.29-.06.45s-.1.34-.16.55l-.53,1.7c-.07.23-.13.42-.18.59-.05.17-.07.31-.07.44,0,.37.16.56.48.56.13,0,.32-.08.55-.24.23-.16.46-.41.69-.76.31-.46.54-.89.67-1.29.14-.4.21-.74.21-1.01,0-.11-.01-.2-.04-.28-.03-.08-.05-.16-.08-.24-.03-.08-.06-.16-.09-.23s-.04-.16-.04-.24c0-.14.03-.25.09-.32.06-.07.12-.11.2-.11.11,0,.19.06.26.18.07.12.1.31.1.56,0,.77-.27,1.64-.82,2.61-.33.59-.68,1.03-1.04,1.32-.36.29-.71.44-1.05.44-.2,0-.36-.08-.49-.23-.13-.15-.2-.36-.2-.63,0-.12.01-.25.03-.4s.06-.3.12-.47l.69-2.17Z"/>
        <path class="cls-1" d="M59.65,37.83c0,.4.09.7.26.91.17.21.4.32.67.32.38,0,.75-.22,1.11-.65.11-.13.17-.23.2-.32.03-.09.07-.13.14-.13.04,0,.06.03.06.11,0,.06-.03.14-.08.25s-.14.23-.25.38c-.46.59-.94.89-1.43.89-.19,0-.37-.04-.54-.13-.17-.09-.31-.21-.44-.37s-.22-.35-.29-.58-.11-.48-.11-.75c0-.39.08-.78.22-1.17s.37-.77.66-1.12c.27-.33.55-.58.85-.74s.58-.25.85-.25c.32,0,.58.1.78.3.2.2.3.45.3.76,0,.52-.25.94-.74,1.25-.5.31-1.23.51-2.21.58-.02.23-.03.38-.03.46ZM61.41,36.57c.39-.33.59-.74.59-1.23,0-.2-.05-.36-.14-.48-.1-.12-.22-.18-.39-.18s-.33.05-.49.16c-.17.11-.33.26-.48.47-.16.21-.3.46-.44.77-.14.3-.25.65-.35,1.04.74-.03,1.31-.22,1.7-.55Z"/>
        <path class="cls-1" d="M17.87,47.88c0,.33.02.63.06.88.04.26.11.47.22.64.11.17.26.3.45.38s.43.13.73.13.57-.05.79-.15c.22-.1.4-.25.54-.43.14-.2.22-.43.25-.7.03-.27.04-.59.04-.98v-2.31c0-.47,0-.83-.03-1.1-.02-.27-.07-.44-.15-.54-.04-.03-.08-.06-.14-.06-.06,0-.11-.01-.17-.02s-.1-.02-.14-.04-.06-.06-.06-.12c0-.1.05-.15.16-.15.04,0,.12,0,.22.02.11.01.24.02.4.02.18,0,.33,0,.44-.02.11-.01.17-.02.2-.02.13,0,.19.05.19.15,0,.06-.02.11-.06.12s-.11.03-.21.03-.18.03-.23.08c-.06.06-.1.15-.13.27-.03.12-.04.28-.05.48,0,.19,0,.43,0,.72v2.48c0,.37-.01.69-.04.98-.03.29-.1.55-.24.78-.14.25-.35.45-.63.59s-.62.21-1.02.21c-.91,0-1.52-.26-1.84-.78-.13-.21-.21-.43-.23-.68s-.04-.53-.04-.85v-3.76c0-.17-.01-.29-.04-.35s-.09-.11-.2-.14c-.07-.02-.14-.03-.2-.03-.06,0-.11,0-.15-.01s-.08-.02-.1-.04c-.02-.02-.04-.06-.04-.11,0-.1.05-.15.15-.15.08,0,.19.02.34.04s.34.04.57.04c.25,0,.46-.01.62-.04s.27-.04.34-.04c.11,0,.16.05.16.15,0,.05-.01.08-.03.1-.02.02-.05.03-.1.04s-.09.01-.15.02c-.06,0-.12.01-.18.03-.13.03-.21.08-.23.14-.02.07-.03.18-.03.36v3.74Z"/>
        <path class="cls-1" d="M23.03,45.89c0,.08.01.12.04.12s.07-.05.13-.15c.06-.1.16-.21.29-.34.14-.13.28-.22.43-.29.14-.06.3-.1.47-.1.39,0,.71.15.95.43.24.29.36.68.36,1.18v2.6c0,.15.03.25.08.3.06.05.12.09.19.11s.13.03.19.04c.06.01.09.04.09.1,0,.05-.01.08-.04.09-.03.01-.07.02-.12.02-.05,0-.13,0-.24-.02s-.26-.02-.44-.02c-.15,0-.27,0-.38.02-.11.01-.2.02-.28.02-.06,0-.11,0-.14-.01s-.04-.04-.04-.1.03-.09.08-.1c.06-.01.12-.03.19-.05s.13-.06.19-.11c.06-.05.09-.15.09-.29v-2.13c0-.55-.07-.96-.21-1.24-.14-.28-.4-.41-.77-.41s-.66.15-.83.46c-.17.31-.26.77-.26,1.38v1.94c0,.15.03.25.08.3.06.05.12.09.19.11s.13.03.19.04c.06.01.09.04.09.1,0,.05-.01.08-.04.09-.03.01-.07.02-.12.02-.05,0-.13,0-.24-.02s-.26-.02-.44-.02c-.13,0-.25,0-.37.02-.11.01-.22.02-.32.02-.06,0-.1,0-.12-.02-.03-.01-.04-.04-.04-.09,0-.06.03-.09.08-.1.06-.01.12-.03.19-.05s.13-.06.19-.11c.06-.05.09-.15.09-.29v-3.07c0-.11-.02-.17-.07-.21-.05-.03-.1-.05-.15-.06-.05,0-.1-.01-.14-.02-.04,0-.06-.03-.06-.07,0-.06.04-.11.11-.13s.15-.07.23-.12c.18-.13.32-.25.4-.35s.14-.16.18-.16.06.02.06.07,0,.11,0,.19v.5Z"/>
        <path class="cls-1" d="M27.51,45.15c0,.07,0,.12.03.14.02.03.06.04.12.04h.79c.06,0,.1,0,.12.03.01.02.02.06.02.11v.04c0,.06,0,.11-.03.14-.02.03-.06.04-.11.04h-.8c-.06,0-.1.01-.12.04-.02.02-.03.07-.03.14v3.1c0,.54.17.81.51.81.09,0,.18-.02.25-.06.08-.04.15-.09.21-.13.06-.04.11-.09.15-.13.04-.04.07-.06.1-.06.03,0,.04.03.04.08,0,.03-.03.09-.08.17-.05.08-.13.16-.22.24-.1.08-.21.16-.33.22-.12.06-.25.1-.39.1-.28,0-.49-.11-.64-.33s-.23-.54-.23-.97v-.5l.03-2.54c0-.07,0-.12-.03-.14-.02-.02-.06-.04-.12-.04h-.16c-.11,0-.16-.03-.16-.1,0-.06.06-.12.17-.21.11-.08.24-.21.4-.4.16-.18.26-.34.31-.48.05-.13.1-.2.15-.2.03,0,.04.04.04.13v.71Z"/>
        <path class="cls-1" d="M29.97,49.34c0,.15.03.25.09.3s.13.09.2.11c.07.02.14.03.2.04s.09.04.09.1-.01.09-.04.1c-.03,0-.07.01-.12.01-.04,0-.13,0-.25-.02-.12-.01-.29-.02-.49-.02-.16,0-.3,0-.43.02-.12.01-.22.02-.3.02-.06,0-.1,0-.13-.02s-.05-.04-.05-.09c0-.06.03-.09.1-.1.07-.01.14-.02.22-.04s.15-.06.22-.11c.07-.06.1-.16.1-.3v-2.91c0-.26-.11-.39-.33-.39-.06,0-.1,0-.14-.02s-.05-.04-.05-.09c0-.07.04-.12.12-.15s.17-.08.26-.16c.2-.11.34-.22.44-.31.1-.09.17-.14.21-.14.03,0,.06.01.06.04,0,.03.01.08.01.15v3.97ZM29.92,43.47c.08.11.12.23.12.37s-.04.25-.11.36c-.07.1-.16.15-.27.15-.1,0-.19-.05-.26-.15-.07-.1-.11-.22-.11-.36s.04-.26.11-.37c.07-.11.16-.16.26-.16s.19.05.27.16Z"/>
        <path class="cls-1" d="M31.77,49.34c0,.15.03.25.08.3.06.05.12.09.19.11s.13.03.19.04c.06.01.09.04.09.1,0,.05-.01.08-.04.09-.03.01-.07.02-.12.02s-.14,0-.25-.02c-.11-.01-.26-.02-.43-.02-.15,0-.29,0-.41.02s-.23.02-.31.02c-.06,0-.11,0-.14-.02s-.04-.04-.04-.09c0-.06.03-.09.1-.1.06-.01.13-.03.21-.05.08-.02.15-.06.21-.11.06-.05.1-.15.1-.29v-5.62c0-.32-.11-.48-.33-.48,0,0-.02,0-.04,0-.02,0-.04,0-.08,0-.05,0-.07-.03-.07-.1,0-.08.04-.12.13-.14s.18-.04.3-.07c.18-.06.32-.13.41-.2.09-.07.16-.1.19-.1.05,0,.07.08.07.23v6.46Z"/>
        <path class="cls-1" d="M36.43,48.84c-.33.92-.55,1.62-.67,2.09-.12.47-.19.74-.21.79-.04.12-.06.22-.08.3-.02.08-.04.14-.07.19s-.08.08-.14.1-.16.03-.28.03c-.13,0-.22-.03-.27-.09-.05-.06-.08-.15-.08-.27s.01-.2.04-.25c.03-.05.07-.08.12-.11.05-.02.11-.03.19-.03.08,0,.17,0,.27-.02.06,0,.1-.04.13-.12s.07-.17.12-.31c.11-.3.18-.56.22-.76.04-.2.06-.33.06-.4,0-.06-.03-.16-.07-.31l-1.2-3.78c-.04-.12-.09-.2-.15-.24-.06-.04-.11-.07-.17-.08-.06-.01-.1-.03-.14-.04-.04-.01-.06-.04-.06-.1,0-.05,0-.08.03-.09.02-.01.05-.02.1-.02.04,0,.1,0,.2.02.1.01.23.02.41.02.23,0,.41,0,.54-.02.13-.01.23-.02.29-.02.09,0,.14.03.14.11,0,.05-.03.08-.08.1-.05.02-.11.03-.17.05-.06.01-.12.04-.17.06-.05.03-.08.07-.08.14,0,.08.01.16.03.25.02.09.05.19.09.31l.75,2.56c.03.09.05.14.07.14.03,0,.06-.05.1-.15l.81-2.5c.03-.08.05-.17.08-.26.02-.09.04-.2.04-.31,0-.09-.03-.15-.09-.18-.06-.03-.12-.05-.19-.06s-.13-.02-.19-.04c-.06-.02-.09-.05-.09-.11,0-.05.01-.08.04-.09.02-.01.06-.02.12-.02.03,0,.1,0,.2.02s.25.02.44.02c.17,0,.3,0,.4-.02s.16-.02.18-.02c.08,0,.12.03.12.11,0,.08-.03.12-.07.12s-.13.03-.25.09c-.08.03-.15.11-.21.21-.06.11-.13.26-.2.47l-.89,2.52Z"/>
        <path class="cls-1" d="M40.81,45.32c.27.12.49.29.67.51.18.22.32.49.41.8.1.31.14.65.14,1.03s-.05.73-.15,1.05c-.1.32-.24.58-.43.81s-.42.4-.69.51c-.27.12-.57.18-.91.18-.3,0-.58-.06-.83-.19-.25-.12-.46-.3-.64-.52-.18-.22-.32-.49-.41-.8-.1-.31-.15-.65-.15-1.03s.05-.73.15-1.04c.1-.31.25-.58.43-.8s.41-.39.66-.51c.25-.12.53-.18.83-.18.33,0,.63.06.9.18ZM38.88,45.91c-.26.39-.39.95-.39,1.7,0,.38.04.71.11,1.01.07.3.17.55.3.76.13.21.28.37.45.48.17.11.36.16.57.16.45,0,.81-.19,1.06-.57.25-.38.38-.93.38-1.67,0-.78-.13-1.38-.39-1.81-.26-.43-.6-.64-1.04-.64s-.8.19-1.06.58Z"/>
        <path class="cls-1" d="M43.35,48.11c0,.55.07.97.21,1.24.14.28.4.41.77.41s.66-.15.83-.46c.17-.31.26-.77.26-1.39v-1.93c0-.14-.03-.24-.09-.3-.06-.06-.12-.1-.19-.12s-.13-.03-.19-.04c-.06,0-.08-.04-.08-.1,0-.05,0-.08.03-.09.02-.01.04-.02.08-.02.03,0,.07,0,.14.01.06,0,.15.01.25.01.12,0,.22,0,.3-.01.08,0,.14-.01.18-.01.08,0,.12.02.13.06.01.04.02.13.02.28v3.49c0,.15.02.25.06.3.04.05.09.08.14.08.05,0,.1.01.14.01.05,0,.07.02.07.07,0,.06-.04.1-.12.13-.08.03-.17.08-.28.13-.13.07-.23.14-.31.21s-.14.1-.2.1c-.04,0-.07-.02-.08-.07-.01-.05-.02-.11-.02-.19v-.5c0-.09-.01-.13-.03-.13-.03,0-.07.05-.13.15-.06.1-.15.21-.3.33-.14.13-.28.22-.43.29-.14.07-.3.1-.48.1-.24,0-.46-.06-.65-.18-.19-.12-.34-.29-.44-.5-.1-.19-.16-.39-.18-.6-.02-.2-.03-.42-.03-.65v-2.29c0-.14-.03-.24-.09-.3-.06-.06-.12-.1-.19-.12s-.13-.03-.19-.04c-.06,0-.08-.04-.08-.1,0-.05,0-.08.03-.09.02-.01.04-.02.08-.02.01,0,.06,0,.14.01.08,0,.2.01.34.01.08,0,.14,0,.2-.01.06,0,.12-.01.17-.01.08,0,.12.02.14.05.02.04.03.13.03.29v2.44Z"/>
        <path class="cls-1" d="M49.2,47.56c.42-.81.8-1.42,1.15-1.82.35-.4.69-.6,1.03-.6.26,0,.48.12.64.35s.25.56.25.98c0,.39-.07.81-.2,1.26s-.32.86-.57,1.23c-.27.41-.58.72-.93.93-.35.21-.72.32-1.1.32-.33,0-.6-.11-.79-.34s-.3-.54-.3-.94c0-.22.03-.49.1-.8.06-.31.15-.68.27-1.1l.87-3.33c.05-.18.07-.32.07-.41,0-.05-.02-.09-.06-.13-.04-.04-.1-.06-.18-.06-.02,0-.04,0-.06,0-.02,0-.04,0-.06,0-.11,0-.16-.04-.16-.11,0-.1.07-.14.22-.14.17,0,.31-.02.43-.05.12-.03.21-.06.29-.1.08-.04.14-.07.18-.1s.09-.05.12-.05.05.03.05.08c0,0,0,.02,0,.04s0,.04-.02.08l-1.24,4.8ZM51.5,45.82c-.09-.12-.2-.18-.33-.18-.22,0-.44.12-.67.35-.23.23-.49.58-.78,1.05-.3.49-.53.92-.67,1.29s-.21.68-.21.92c0,.5.21.75.64.75.25,0,.49-.09.73-.28.24-.19.47-.47.68-.85.13-.24.24-.47.33-.71s.18-.46.24-.68c.06-.22.11-.43.14-.62.03-.19.04-.36.04-.5,0-.24-.04-.41-.13-.54Z"/>
        <path class="cls-1" d="M53.09,48.45c0,.4.09.7.26.91.17.21.4.32.67.32.38,0,.75-.22,1.11-.65.11-.13.17-.23.2-.32.03-.09.07-.13.14-.13.04,0,.06.03.06.11,0,.06-.03.14-.08.25s-.14.23-.25.38c-.46.59-.94.89-1.43.89-.19,0-.37-.04-.54-.13-.17-.09-.31-.21-.44-.37s-.22-.35-.29-.58-.11-.48-.11-.75c0-.39.08-.78.22-1.17s.37-.77.66-1.12c.27-.33.55-.58.85-.74s.58-.25.85-.25c.32,0,.58.1.78.3.2.2.3.45.3.76,0,.52-.25.94-.74,1.25-.5.31-1.23.51-2.21.58-.02.23-.03.38-.03.46ZM54.84,47.19c.39-.33.59-.74.59-1.23,0-.2-.05-.36-.14-.48-.1-.12-.22-.18-.39-.18s-.33.05-.49.16c-.17.11-.33.26-.48.47-.16.21-.3.46-.44.77-.14.3-.25.65-.35,1.04.74-.03,1.31-.22,1.7-.55Z"/>
        <path class="cls-1" d="M56.78,48.94c-.03.11-.05.19-.06.26s-.02.12-.02.16c0,.13.05.2.16.2.16,0,.39-.26.69-.79.06-.11.11-.18.13-.23.03-.05.05-.07.08-.07.04,0,.06.03.06.07,0,.06-.04.17-.12.31s-.2.33-.36.57-.32.41-.5.53c-.18.12-.33.18-.46.18-.25,0-.37-.16-.37-.47s.07-.76.22-1.31l1.3-4.66c.05-.18.07-.32.07-.41,0-.06-.02-.1-.06-.14-.04-.03-.1-.05-.18-.05-.02,0-.04,0-.06,0-.02,0-.04,0-.06,0-.11,0-.17-.04-.17-.11,0-.04.01-.07.04-.09s.07-.03.13-.04c.06,0,.13-.01.21-.02s.17-.02.27-.04c.2-.04.34-.09.44-.16.09-.07.17-.11.23-.11.03,0,.05.03.05.1,0,.04-.02.07-.03.11l-1.63,6.18Z"/>
        <path class="cls-1" d="M59.01,48.99c-.06.21-.1.35-.1.41,0,.15.05.22.15.22.18,0,.37-.18.57-.54.11-.19.19-.33.23-.42s.07-.13.1-.13c.05,0,.07.03.07.07,0,.12-.14.4-.43.83-.16.25-.33.43-.49.56-.16.12-.32.18-.46.18-.28,0-.43-.18-.43-.53,0-.18.04-.41.12-.68s.18-.6.32-.98l.44-1.28c.06-.19.12-.35.16-.49s.06-.26.06-.36c0-.08,0-.13-.03-.17-.02-.04-.06-.05-.12-.05-.09,0-.17.04-.25.13-.09.09-.17.19-.24.3-.07.11-.14.21-.2.3-.06.09-.1.13-.13.13-.04,0-.05-.03-.05-.1,0-.03.03-.1.08-.2.06-.11.15-.24.28-.4.36-.45.68-.68.95-.68.12,0,.22.04.29.12s.11.19.11.33-.03.31-.07.49c-.05.18-.11.37-.18.58l-.75,2.36ZM59.91,43.48c.1-.15.22-.22.34-.22.09,0,.17.03.22.11.06.07.08.16.08.28,0,.21-.05.38-.15.53-.1.15-.21.22-.34.22-.1,0-.18-.04-.23-.12-.06-.08-.08-.19-.08-.33,0-.17.05-.33.15-.47Z"/>
        <path class="cls-1" d="M61.1,48.45c0,.4.09.7.26.91.17.21.4.32.67.32.38,0,.75-.22,1.11-.65.11-.13.17-.23.2-.32.03-.09.07-.13.14-.13.04,0,.06.03.06.11,0,.06-.03.14-.08.25s-.14.23-.25.38c-.46.59-.94.89-1.43.89-.19,0-.37-.04-.54-.13-.17-.09-.31-.21-.44-.37s-.22-.35-.29-.58-.11-.48-.11-.75c0-.39.08-.78.22-1.17s.37-.77.66-1.12c.27-.33.55-.58.85-.74s.58-.25.85-.25c.32,0,.58.1.78.3.2.2.3.45.3.76,0,.52-.25.94-.74,1.25-.5.31-1.23.51-2.21.58-.02.23-.03.38-.03.46ZM62.86,47.19c.39-.33.59-.74.59-1.23,0-.2-.05-.36-.14-.48-.1-.12-.22-.18-.39-.18s-.33.05-.49.16c-.17.11-.33.26-.48.47-.16.21-.3.46-.44.77-.14.3-.25.65-.35,1.04.74-.03,1.31-.22,1.7-.55Z"/>
        <path class="cls-1" d="M65.06,46.31c.06-.19.1-.34.1-.45s-.04-.16-.13-.16c-.08,0-.15.04-.23.13-.07.09-.15.19-.21.3-.07.11-.13.21-.2.3s-.12.13-.18.13c-.03,0-.04-.02-.04-.07,0-.06.03-.13.1-.23.06-.1.15-.22.27-.38.18-.25.35-.44.49-.56.15-.13.3-.19.46-.19.1,0,.18.04.25.11s.1.17.1.3c0,.14-.02.29-.06.45s-.1.34-.16.55l-.53,1.7c-.07.23-.13.42-.18.59-.05.17-.07.31-.07.44,0,.37.16.56.48.56.13,0,.32-.08.55-.24.23-.16.46-.41.69-.76.31-.46.54-.89.67-1.29.14-.4.21-.74.21-1.01,0-.11-.01-.2-.04-.28-.03-.08-.05-.16-.08-.24-.03-.08-.06-.16-.09-.23s-.04-.16-.04-.24c0-.14.03-.25.09-.32.06-.07.12-.11.2-.11.11,0,.19.06.26.18.07.12.1.31.1.56,0,.77-.27,1.64-.82,2.61-.33.59-.68,1.03-1.04,1.32-.36.29-.71.44-1.05.44-.2,0-.36-.08-.49-.23-.13-.15-.2-.36-.2-.63,0-.12.01-.25.03-.4s.06-.3.12-.47l.69-2.17Z"/>
        <path class="cls-1" d="M68.56,48.45c0,.4.09.7.26.91.17.21.4.32.67.32.38,0,.75-.22,1.11-.65.11-.13.17-.23.2-.32.03-.09.07-.13.14-.13.04,0,.06.03.06.11,0,.06-.03.14-.08.25s-.14.23-.25.38c-.46.59-.94.89-1.43.89-.19,0-.37-.04-.54-.13-.17-.09-.31-.21-.44-.37s-.22-.35-.29-.58-.11-.48-.11-.75c0-.39.08-.78.22-1.17s.37-.77.66-1.12c.27-.33.55-.58.85-.74s.58-.25.85-.25c.32,0,.58.1.78.3.2.2.3.45.3.76,0,.52-.25.94-.74,1.25-.5.31-1.23.51-2.21.58-.02.23-.03.38-.03.46ZM70.32,47.19c.39-.33.59-.74.59-1.23,0-.2-.05-.36-.14-.48-.1-.12-.22-.18-.39-.18s-.33.05-.49.16c-.17.11-.33.26-.48.47-.16.21-.3.46-.44.77-.14.3-.25.65-.35,1.04.74-.03,1.31-.22,1.7-.55Z"/>
        <path class="cls-1" d="M24.52,55.86c.15-.43.36-.8.63-1.12.27-.31.58-.56.93-.74.35-.18.74-.26,1.15-.26.18,0,.35.01.5.04.16.03.3.06.44.1.13.04.24.08.33.13.09.05.15.09.19.12.04.04.06.16.08.35.02.19.03.45.03.77,0,.09-.03.14-.1.14-.07,0-.12-.06-.14-.17-.02-.11-.08-.25-.17-.41-.28-.52-.7-.78-1.24-.78-.28,0-.55.07-.79.22s-.46.36-.64.64c-.18.28-.33.62-.44,1.02-.11.4-.16.86-.16,1.37,0,.47.05.91.16,1.3.11.4.25.74.44,1.02s.41.51.65.67c.25.16.51.24.8.24.34,0,.62-.1.83-.3.21-.2.39-.5.53-.89.06-.16.09-.28.11-.37.02-.09.05-.13.11-.13.07,0,.11.06.11.18,0,.35,0,.63-.02.82-.01.2-.04.32-.08.39-.04.06-.11.13-.21.2-.1.07-.22.14-.36.2-.14.06-.3.11-.48.15-.18.04-.37.06-.58.06-.4,0-.78-.09-1.13-.27-.35-.18-.65-.43-.9-.74s-.45-.69-.59-1.12c-.14-.43-.21-.9-.21-1.41s.08-.98.23-1.41Z"/>
        <path class="cls-1" d="M32.26,55.93c.27.12.49.29.67.51.18.22.32.49.41.8.1.31.14.65.14,1.03s-.05.73-.15,1.05c-.1.32-.24.58-.43.81s-.42.4-.69.51c-.27.12-.57.18-.91.18-.3,0-.58-.06-.83-.19-.25-.12-.46-.3-.64-.52-.18-.22-.32-.49-.41-.8-.1-.31-.15-.65-.15-1.03s.05-.73.15-1.04c.1-.31.25-.58.43-.8s.41-.39.66-.51c.25-.12.53-.18.83-.18.33,0,.63.06.9.18ZM30.33,56.52c-.26.39-.39.95-.39,1.7,0,.38.04.71.11,1.01.07.3.17.55.3.76.13.21.28.37.45.48.17.11.36.16.57.16.45,0,.81-.19,1.06-.57.25-.38.38-.93.38-1.67,0-.78-.13-1.38-.39-1.81-.26-.43-.6-.64-1.04-.64s-.8.19-1.06.58Z"/>
        <path class="cls-1" d="M34.78,56.51c0,.08.01.12.04.12s.07-.05.13-.15c.06-.1.16-.21.29-.34.14-.13.28-.22.43-.29.14-.06.3-.1.47-.1.39,0,.71.15.95.43.24.29.36.68.36,1.18v2.6c0,.15.03.25.08.3.06.05.12.09.19.11s.13.03.19.04c.06.01.09.04.09.1,0,.05-.01.08-.04.09-.03.01-.07.02-.12.02-.05,0-.13,0-.24-.02s-.26-.02-.44-.02c-.15,0-.27,0-.38.02-.11.01-.2.02-.28.02-.06,0-.11,0-.14-.01s-.04-.04-.04-.1.03-.09.08-.1c.06-.01.12-.03.19-.05s.13-.06.19-.11c.06-.05.09-.15.09-.29v-2.13c0-.55-.07-.96-.21-1.24-.14-.28-.4-.41-.77-.41s-.66.15-.83.46c-.17.31-.26.77-.26,1.38v1.94c0,.15.03.25.08.3.06.05.12.09.19.11s.13.03.19.04c.06.01.09.04.09.1,0,.05-.01.08-.04.09-.03.01-.07.02-.12.02-.05,0-.13,0-.24-.02s-.26-.02-.44-.02c-.13,0-.25,0-.37.02-.11.01-.22.02-.32.02-.06,0-.1,0-.12-.02-.03-.01-.04-.04-.04-.09,0-.06.03-.09.08-.1.06-.01.12-.03.19-.05s.13-.06.19-.11c.06-.05.09-.15.09-.29v-3.07c0-.11-.02-.17-.07-.21-.05-.03-.1-.05-.15-.06-.05,0-.1-.01-.14-.02-.04,0-.06-.03-.06-.07,0-.06.04-.11.11-.13s.15-.07.23-.12c.18-.13.32-.25.4-.35s.14-.16.18-.16.06.02.06.07,0,.11,0,.19v.5Z"/>
        <path class="cls-1" d="M39.26,55.76c0,.07,0,.12.03.14.02.03.06.04.12.04h.79c.06,0,.1,0,.12.03.01.02.02.06.02.11v.04c0,.06,0,.11-.03.14-.02.03-.06.04-.11.04h-.8c-.06,0-.1.01-.12.04-.02.02-.03.07-.03.14v3.1c0,.54.17.81.51.81.09,0,.18-.02.25-.06.08-.04.15-.09.21-.13.06-.04.11-.09.15-.13.04-.04.07-.06.1-.06.03,0,.04.03.04.08,0,.03-.03.09-.08.17-.05.08-.13.16-.22.24-.1.08-.21.16-.33.22-.12.06-.25.1-.39.1-.28,0-.49-.11-.64-.33s-.23-.54-.23-.97v-.5l.03-2.54c0-.07,0-.12-.03-.14-.02-.02-.06-.04-.12-.04h-.16c-.11,0-.16-.03-.16-.1,0-.06.06-.12.17-.21.11-.08.24-.21.4-.4.16-.18.26-.34.31-.48.05-.13.1-.2.15-.2.03,0,.04.04.04.13v.71Z"/>
        <path class="cls-1" d="M41.73,59.96c0,.15.03.25.09.3s.13.09.2.11c.07.02.14.03.2.04s.09.04.09.1-.01.09-.04.1c-.03,0-.07.01-.12.01-.04,0-.13,0-.25-.02-.12-.01-.29-.02-.49-.02-.16,0-.3,0-.43.02-.12.01-.22.02-.3.02-.06,0-.1,0-.13-.02s-.05-.04-.05-.09c0-.06.03-.09.1-.1.07-.01.14-.02.22-.04s.15-.06.22-.11c.07-.06.1-.16.1-.3v-2.91c0-.26-.11-.39-.33-.39-.06,0-.1,0-.14-.02s-.05-.04-.05-.09c0-.07.04-.12.12-.15s.17-.08.26-.16c.2-.11.34-.22.44-.31.1-.09.17-.14.21-.14.03,0,.06.01.06.04,0,.03.01.08.01.15v3.97ZM41.67,54.09c.08.11.12.23.12.37s-.04.25-.11.36c-.07.1-.16.15-.27.15-.1,0-.19-.05-.26-.15-.07-.1-.11-.22-.11-.36s.04-.26.11-.37c.07-.11.16-.16.26-.16s.19.05.27.16Z"/>
        <path class="cls-1" d="M43.5,56.51c0,.08.01.12.04.12s.07-.05.13-.15c.06-.1.16-.21.29-.34.14-.13.28-.22.43-.29.14-.06.3-.1.47-.1.39,0,.71.15.95.43.24.29.36.68.36,1.18v2.6c0,.15.03.25.08.3.06.05.12.09.19.11s.13.03.19.04c.06.01.09.04.09.1,0,.05-.01.08-.04.09-.03.01-.07.02-.12.02-.05,0-.13,0-.24-.02s-.26-.02-.44-.02c-.15,0-.27,0-.38.02-.11.01-.2.02-.28.02-.06,0-.11,0-.14-.01s-.04-.04-.04-.1.03-.09.08-.1c.06-.01.12-.03.19-.05s.13-.06.19-.11c.06-.05.09-.15.09-.29v-2.13c0-.55-.07-.96-.21-1.24-.14-.28-.4-.41-.77-.41s-.66.15-.83.46c-.17.31-.26.77-.26,1.38v1.94c0,.15.03.25.08.3.06.05.12.09.19.11s.13.03.19.04c.06.01.09.04.09.1,0,.05-.01.08-.04.09-.03.01-.07.02-.12.02-.05,0-.13,0-.24-.02s-.26-.02-.44-.02c-.13,0-.25,0-.37.02-.11.01-.22.02-.32.02-.06,0-.1,0-.12-.02-.03-.01-.04-.04-.04-.09,0-.06.03-.09.08-.1.06-.01.12-.03.19-.05s.13-.06.19-.11c.06-.05.09-.15.09-.29v-3.07c0-.11-.02-.17-.07-.21-.05-.03-.1-.05-.15-.06-.05,0-.1-.01-.14-.02-.04,0-.06-.03-.06-.07,0-.06.04-.11.11-.13s.15-.07.23-.12c.18-.13.32-.25.4-.35s.14-.16.18-.16.06.02.06.07,0,.11,0,.19v.5Z"/>
        <path class="cls-1" d="M47.99,58.72c0,.55.07.97.21,1.24.14.28.4.41.77.41s.66-.15.83-.46c.17-.31.26-.77.26-1.39v-1.93c0-.14-.03-.24-.09-.3-.06-.06-.12-.1-.19-.12s-.13-.03-.19-.04c-.06,0-.08-.04-.08-.1,0-.05,0-.08.03-.09.02-.01.04-.02.08-.02.03,0,.07,0,.14.01.06,0,.15.01.25.01.12,0,.22,0,.3-.01.08,0,.14-.01.18-.01.08,0,.12.02.13.06.01.04.02.13.02.28v3.49c0,.15.02.25.06.3.04.05.09.08.14.08.05,0,.1.01.14.01.05,0,.07.02.07.07,0,.06-.04.1-.12.13-.08.03-.17.08-.28.13-.13.07-.23.14-.31.21s-.14.1-.2.1c-.04,0-.07-.02-.08-.07-.01-.05-.02-.11-.02-.19v-.5c0-.09-.01-.13-.03-.13-.03,0-.07.05-.13.15-.06.1-.15.21-.3.33-.14.13-.28.22-.43.29-.14.07-.3.1-.48.1-.24,0-.46-.06-.65-.18-.19-.12-.34-.29-.44-.5-.1-.19-.16-.39-.18-.6-.02-.2-.03-.42-.03-.65v-2.29c0-.14-.03-.24-.09-.3-.06-.06-.12-.1-.19-.12s-.13-.03-.19-.04c-.06,0-.08-.04-.08-.1,0-.05,0-.08.03-.09.02-.01.04-.02.08-.02.01,0,.06,0,.14.01.08,0,.2.01.34.01.08,0,.14,0,.2-.01.06,0,.12-.01.17-.01.08,0,.12.02.14.05.02.04.03.13.03.29v2.44Z"/>
        <path class="cls-1" d="M52.25,57.63c-.09,0-.15.03-.17.09-.02.06-.03.18-.03.36,0,.35.04.67.12.94.08.28.19.51.34.7.15.19.32.34.52.44s.42.15.66.15c.22,0,.41-.03.56-.11s.28-.15.38-.24c.1-.08.18-.16.23-.23.06-.07.1-.11.12-.11.05,0,.07.03.07.08,0,.08-.04.18-.12.3-.08.12-.19.24-.33.36-.15.12-.32.22-.53.3s-.44.13-.7.13c-.29,0-.56-.06-.8-.18-.24-.12-.46-.29-.63-.51-.18-.22-.31-.48-.41-.79-.1-.31-.14-.66-.14-1.04s.06-.74.17-1.06.27-.58.46-.8c.19-.22.41-.39.67-.5.25-.12.52-.17.81-.17.25,0,.47.05.67.14.2.09.37.21.5.37.14.15.24.33.32.53s.11.41.11.62c0,.08-.02.13-.07.17-.05.03-.13.05-.25.05h-2.53ZM54.09,57.3c.2-.05.31-.18.31-.39,0-.11-.03-.23-.07-.34s-.12-.22-.21-.31c-.09-.09-.19-.17-.31-.22s-.25-.08-.38-.08c-.17,0-.33.04-.49.13-.16.08-.29.19-.41.32-.12.13-.21.27-.28.43s-.11.31-.11.46c0,.02.01.04.03.07.02.02.05.03.08.03h.87c.44,0,.76-.03.97-.08Z"/>
        <path class="cls-1" d="M58.22,55.76c0,.07,0,.12.03.14.02.03.06.04.12.04h.79c.06,0,.1,0,.12.03.01.02.02.06.02.11v.04c0,.06,0,.11-.03.14-.02.03-.06.04-.11.04h-.8c-.06,0-.1.01-.12.04-.02.02-.03.07-.03.14v3.1c0,.54.17.81.51.81.09,0,.18-.02.25-.06.08-.04.15-.09.21-.13.06-.04.11-.09.15-.13.04-.04.07-.06.1-.06.03,0,.04.03.04.08,0,.03-.03.09-.08.17-.05.08-.13.16-.22.24-.1.08-.21.16-.33.22-.12.06-.25.1-.39.1-.28,0-.49-.11-.64-.33s-.23-.54-.23-.97v-.5l.03-2.54c0-.07,0-.12-.03-.14-.02-.02-.06-.04-.12-.04h-.16c-.11,0-.16-.03-.16-.1,0-.06.06-.12.17-.21.11-.08.24-.21.4-.4.16-.18.26-.34.31-.48.05-.13.1-.2.15-.2.03,0,.04.04.04.13v.71Z"/>
        <path class="cls-1" d="M62.55,55.93c.27.12.49.29.67.51.18.22.32.49.41.8.1.31.14.65.14,1.03s-.05.73-.15,1.05c-.1.32-.24.58-.43.81s-.42.4-.69.51c-.27.12-.57.18-.91.18-.3,0-.58-.06-.83-.19-.25-.12-.46-.3-.64-.52-.18-.22-.32-.49-.41-.8-.1-.31-.15-.65-.15-1.03s.05-.73.15-1.04c.1-.31.25-.58.43-.8s.41-.39.66-.51c.25-.12.53-.18.83-.18.33,0,.63.06.9.18ZM60.62,56.52c-.26.39-.39.95-.39,1.7,0,.38.04.71.11,1.01.07.3.17.55.3.76.13.21.28.37.45.48.17.11.36.16.57.16.45,0,.81-.19,1.06-.57.25-.38.38-.93.38-1.67,0-.78-.13-1.38-.39-1.81-.26-.43-.6-.64-1.04-.64s-.8.19-1.06.58Z"/>
        <path class="cls-1" d="M34.32,69.37c.4-.99.77-1.73,1.09-2.21.32-.49.63-.73.93-.73.12,0,.22.05.31.14.09.1.13.22.13.39,0,.18-.04.32-.13.44-.08.11-.18.17-.29.17-.09,0-.15-.03-.21-.08-.05-.05-.08-.13-.08-.23,0-.08-.02-.14-.05-.18-.04-.05-.07-.07-.12-.07-.12,0-.34.27-.66.83s-.7,1.38-1.13,2.5c-.08.2-.14.37-.18.49-.04.12-.07.21-.11.27s-.07.11-.11.12-.11.03-.2.03c-.17,0-.25-.04-.25-.13,0-.01.01-.06.03-.14l.79-2.99c.05-.19.09-.36.12-.5.03-.14.04-.26.04-.36,0-.13-.05-.2-.16-.2-.09,0-.18.05-.28.15-.09.1-.18.21-.26.32s-.16.22-.22.32c-.07.1-.11.14-.14.14-.05,0-.07-.03-.07-.11,0-.03.04-.11.11-.23.07-.13.19-.29.35-.48.38-.45.7-.68.97-.68.11,0,.19.04.25.12.06.08.1.2.1.37,0,.06-.01.17-.03.35-.02.18-.06.39-.13.64l-.4,1.54Z"/>
        <path class="cls-1" d="M37.05,69.68c0,.4.09.7.26.91.17.21.4.32.67.32.38,0,.75-.22,1.11-.65.11-.13.17-.23.2-.32.03-.09.07-.13.14-.13.04,0,.06.03.06.11,0,.06-.03.14-.08.25s-.14.23-.25.38c-.46.59-.94.89-1.43.89-.19,0-.37-.04-.54-.13-.17-.09-.31-.21-.44-.37s-.22-.35-.29-.58-.11-.48-.11-.75c0-.39.08-.78.22-1.17s.37-.77.66-1.12c.27-.33.55-.58.85-.74s.58-.25.85-.25c.32,0,.58.1.78.3.2.2.3.45.3.76,0,.52-.25.94-.74,1.25-.5.31-1.23.51-2.21.58-.02.23-.03.38-.03.46ZM38.8,68.42c.39-.33.59-.74.59-1.23,0-.2-.05-.36-.14-.48-.1-.12-.22-.18-.39-.18s-.33.05-.49.16c-.17.11-.33.26-.48.47-.16.21-.3.46-.44.77-.14.3-.25.65-.35,1.04.74-.03,1.31-.22,1.7-.55Z"/>
        <path class="cls-1" d="M41.74,66.47c.14-.03.28-.06.41-.08.13-.02.26-.03.38-.03.49,0,.87.14,1.13.43s.4.69.4,1.22c0,.4-.07.81-.22,1.22-.15.41-.36.8-.63,1.16-.52.67-1.06,1.01-1.61,1.01-.18,0-.35-.04-.49-.11s-.29-.19-.43-.35l-.37,1.83c-.01.07-.02.13-.02.18,0,.11.03.18.1.23.06.05.14.08.22.11.08.02.15.04.22.06.06.02.1.05.1.1,0,.08-.04.12-.12.12s-.21-.01-.39-.04-.42-.04-.7-.04c-.2,0-.36.01-.49.04s-.23.04-.3.04c-.12,0-.18-.03-.18-.08,0-.08.04-.12.13-.14.09-.02.21-.05.36-.11.09-.03.15-.07.2-.1.05-.03.08-.07.11-.12.03-.04.05-.1.07-.17.02-.07.04-.16.07-.28l1.36-5.61c-.16.08-.29.15-.38.21-.09.05-.16.08-.19.08-.06,0-.09-.02-.09-.05,0-.09.06-.17.18-.25s.3-.16.55-.26l.23-1.02c.02-.09.05-.14.07-.16.03-.02.08-.03.15-.03h.14c.1,0,.17,0,.21,0s.06.02.06.06v.04s0,.05-.02.09l-.19.81ZM40.89,70.02c-.03.15-.04.28-.04.4,0,.23.06.41.17.53.12.13.27.19.47.19.5,0,.92-.32,1.25-.97.24-.46.42-.9.53-1.32.11-.42.17-.77.17-1.05,0-.37-.1-.65-.29-.85-.19-.2-.47-.3-.83-.3-.17,0-.39.04-.66.12l-.67,2.72c-.05.2-.09.37-.12.52Z"/>
        <path class="cls-1" d="M44.89,69.68c0,.4.09.7.26.91.17.21.4.32.67.32.38,0,.75-.22,1.11-.65.11-.13.17-.23.2-.32.03-.09.07-.13.14-.13.04,0,.06.03.06.11,0,.06-.03.14-.08.25s-.14.23-.25.38c-.46.59-.94.89-1.43.89-.19,0-.37-.04-.54-.13-.17-.09-.31-.21-.44-.37s-.22-.35-.29-.58-.11-.48-.11-.75c0-.39.08-.78.22-1.17s.37-.77.66-1.12c.27-.33.55-.58.85-.74s.58-.25.85-.25c.32,0,.58.1.78.3.2.2.3.45.3.76,0,.52-.25.94-.74,1.25-.5.31-1.23.51-2.21.58-.02.23-.03.38-.03.46ZM46.65,68.42c.39-.33.59-.74.59-1.23,0-.2-.05-.36-.14-.48-.1-.12-.22-.18-.39-.18s-.33.05-.49.16c-.17.11-.33.26-.48.47-.16.21-.3.46-.44.77-.14.3-.25.65-.35,1.04.74-.03,1.31-.22,1.7-.55Z"/>
        <path class="cls-1" d="M51.39,69.9c-.04.15-.07.27-.09.36-.01.09-.02.15-.02.18,0,.15.04.22.12.22.12,0,.29-.15.5-.45.09-.13.15-.23.18-.3.03-.07.07-.11.13-.11.04,0,.05.02.05.07,0,.15-.11.38-.34.7-.39.57-.73.85-1.03.85-.23,0-.34-.15-.34-.46,0-.18.02-.36.07-.55.05-.19.1-.38.15-.59l.32-1.18c-.53.91-1,1.6-1.4,2.06-.4.46-.78.69-1.14.69-.26,0-.47-.1-.63-.3-.16-.2-.23-.49-.23-.86s.09-.8.27-1.24.46-.89.83-1.36c.35-.45.72-.78,1.09-.99s.7-.32.98-.32c.19,0,.34.04.46.11s.2.11.25.11c.03,0,.05-.02.08-.05.03-.03.05-.07.09-.11.03-.04.08-.07.13-.11.05-.03.12-.05.2-.05.1,0,.17,0,.2.03s.05.07.05.14c0,.05-.02.13-.05.23l-.89,3.24ZM50.07,66.96c-.32.27-.64.67-.96,1.23-.25.43-.43.82-.55,1.17-.12.35-.18.64-.18.89,0,.2.05.36.14.47.09.11.21.16.35.16.2,0,.42-.12.65-.36.24-.24.51-.59.83-1.06.74-1.09,1.11-1.84,1.11-2.25,0-.2-.05-.36-.16-.48-.11-.11-.25-.17-.45-.17-.2,0-.47.13-.79.4Z"/>
        <path class="cls-1" d="M54.19,66.56h.77s.07.02.07.06c0,.13-.04.19-.13.19h-.77l-.57,2.15c-.11.4-.19.73-.25.98-.06.25-.1.43-.1.54,0,.07.02.13.05.17.03.04.07.06.1.06.1,0,.27-.18.51-.55.1-.15.16-.26.19-.35.03-.08.06-.12.11-.12.06,0,.08.04.08.11,0,.11-.12.34-.36.69-.18.28-.36.49-.54.63-.18.14-.33.21-.45.21-.11,0-.19-.05-.26-.14-.07-.1-.1-.23-.1-.4,0-.35.13-.99.4-1.94l.57-2.04h-.65s-.04,0-.05-.02c-.01-.01-.02-.03-.02-.04,0-.13.04-.19.13-.19h.67l.27-1c.03-.1.07-.16.13-.19.06-.03.16-.04.29-.04s.21.03.21.11c0,.03-.02.11-.05.24l-.25.89Z"/>
      </g>
    </g>
  </g>
</svg>