<?xml version="1.0" encoding="UTF-8"?>
<svg id="_레이어_2" data-name="레이어_2" xmlns="http://www.w3.org/2000/svg" viewBox="0 0 262.24 88.46">
  <defs>
    <style>
      .cls-1 {
        fill: #f08719;
      }

      .cls-2 {
        fill: #fff;
      }
    </style>
  </defs>
  <g id="_레이어_1-2" data-name="레이어_1">
    <g>
      <rect class="cls-1" width="262.24" height="88.46" rx="6.31" ry="6.31"/>
      <g>
        <path class="cls-2" d="M12.89,6.82c-3.66,0-6.63,2.85-6.63,6.36s2.97,6.36,6.63,6.36,6.63-2.85,6.63-6.36-2.97-6.36-6.63-6.36Z"/>
        <path class="cls-2" d="M34.53,7.2c-3.44,0-6.23,2.67-6.23,5.97s2.79,5.97,6.23,5.97,6.23-2.67,6.23-5.97-2.79-5.97-6.23-5.97Z"/>
        <path class="cls-2" d="M56.16,7.59c-3.22,0-5.83,2.5-5.83,5.59s2.61,5.59,5.83,5.59,5.83-2.5,5.83-5.59-2.61-5.59-5.83-5.59Z"/>
        <path class="cls-2" d="M77.79,7.97c-3,0-5.43,2.33-5.43,5.2s2.43,5.2,5.43,5.2,5.43-2.33,5.43-5.2-2.43-5.2-5.43-5.2Z"/>
        <ellipse class="cls-2" cx="99.42" cy="13.18" rx="5.03" ry="4.82"/>
        <path class="cls-2" d="M121.06,8.74c-2.55,0-4.62,1.98-4.62,4.43s2.07,4.43,4.62,4.43,4.62-1.98,4.62-4.43-2.07-4.43-4.62-4.43Z"/>
        <path class="cls-2" d="M142.69,9.13c-2.33,0-4.22,1.81-4.22,4.05s1.89,4.05,4.22,4.05,4.22-1.81,4.22-4.05-1.89-4.05-4.22-4.05Z"/>
        <ellipse class="cls-2" cx="164.32" cy="13.18" rx="3.82" ry="3.66"/>
        <path class="cls-2" d="M185.95,9.9c-1.89,0-3.42,1.47-3.42,3.28s1.53,3.28,3.42,3.28,3.42-1.47,3.42-3.28-1.53-3.28-3.42-3.28Z"/>
        <path class="cls-2" d="M207.59,10.29c-1.67,0-3.02,1.29-3.02,2.89s1.35,2.89,3.02,2.89,3.02-1.29,3.02-2.89-1.35-2.89-3.02-2.89Z"/>
        <path class="cls-2" d="M229.22,10.67c-1.44,0-2.61,1.12-2.61,2.5s1.17,2.5,2.61,2.5,2.61-1.12,2.61-2.5-1.17-2.5-2.61-2.5Z"/>
        <path class="cls-2" d="M250.85,15.3c1.22,0,2.21-.95,2.21-2.12s-.99-2.12-2.21-2.12-2.21.95-2.21,2.12.99,2.12,2.21,2.12Z"/>
        <path class="cls-2" d="M12.89,22.08c-3.66,0-6.63,2.85-6.63,6.36s2.97,6.36,6.63,6.36,6.63-2.85,6.63-6.36-2.97-6.36-6.63-6.36Z"/>
        <path class="cls-2" d="M34.53,22.46c-3.44,0-6.23,2.67-6.23,5.97s2.79,5.97,6.23,5.97,6.23-2.67,6.23-5.97-2.79-5.97-6.23-5.97Z"/>
        <path class="cls-2" d="M56.16,22.85c-3.22,0-5.83,2.5-5.83,5.59s2.61,5.59,5.83,5.59,5.83-2.5,5.83-5.59-2.61-5.59-5.83-5.59Z"/>
        <path class="cls-2" d="M77.79,23.23c-3,0-5.43,2.33-5.43,5.2s2.43,5.2,5.43,5.2,5.43-2.33,5.43-5.2-2.43-5.2-5.43-5.2Z"/>
        <path class="cls-2" d="M99.42,23.62c-2.78,0-5.03,2.16-5.03,4.82s2.25,4.82,5.03,4.82,5.03-2.16,5.03-4.82-2.25-4.82-5.03-4.82Z"/>
        <path class="cls-2" d="M121.06,24c-2.55,0-4.62,1.98-4.62,4.43s2.07,4.43,4.62,4.43,4.62-1.98,4.62-4.43-2.07-4.43-4.62-4.43Z"/>
        <path class="cls-2" d="M142.69,24.39c-2.33,0-4.22,1.81-4.22,4.05s1.89,4.05,4.22,4.05,4.22-1.81,4.22-4.05-1.89-4.05-4.22-4.05Z"/>
        <path class="cls-2" d="M164.32,24.78c-2.11,0-3.82,1.64-3.82,3.66s1.71,3.66,3.82,3.66,3.82-1.64,3.82-3.66-1.71-3.66-3.82-3.66Z"/>
        <path class="cls-2" d="M185.95,25.16c-1.89,0-3.42,1.47-3.42,3.28s1.53,3.28,3.42,3.28,3.42-1.47,3.42-3.28-1.53-3.28-3.42-3.28Z"/>
        <path class="cls-2" d="M207.59,25.55c-1.67,0-3.02,1.29-3.02,2.89s1.35,2.89,3.02,2.89,3.02-1.29,3.02-2.89-1.35-2.89-3.02-2.89Z"/>
        <path class="cls-2" d="M229.22,25.93c-1.44,0-2.61,1.12-2.61,2.5s1.17,2.5,2.61,2.5,2.61-1.12,2.61-2.5-1.17-2.5-2.61-2.5Z"/>
        <path class="cls-2" d="M250.85,26.32c-1.22,0-2.21.95-2.21,2.12s.99,2.12,2.21,2.12,2.21-.95,2.21-2.12-.99-2.12-2.21-2.12Z"/>
        <path class="cls-2" d="M12.89,37.34c-3.66,0-6.63,2.85-6.63,6.36s2.97,6.36,6.63,6.36,6.63-2.85,6.63-6.36-2.97-6.36-6.63-6.36Z"/>
        <path class="cls-2" d="M34.53,37.72c-3.44,0-6.23,2.67-6.23,5.97s2.79,5.97,6.23,5.97,6.23-2.67,6.23-5.97-2.79-5.97-6.23-5.97Z"/>
        <ellipse class="cls-2" cx="56.16" cy="43.7" rx="5.83" ry="5.59"/>
        <path class="cls-2" d="M77.79,38.5c-3,0-5.43,2.33-5.43,5.2s2.43,5.2,5.43,5.2,5.43-2.33,5.43-5.2-2.43-5.2-5.43-5.2Z"/>
        <path class="cls-2" d="M99.42,38.88c-2.78,0-5.03,2.16-5.03,4.82s2.25,4.82,5.03,4.82,5.03-2.16,5.03-4.82-2.25-4.82-5.03-4.82Z"/>
        <path class="cls-2" d="M121.06,39.27c-2.55,0-4.62,1.98-4.62,4.43s2.07,4.43,4.62,4.43,4.62-1.98,4.62-4.43-2.07-4.43-4.62-4.43Z"/>
        <path class="cls-2" d="M142.69,39.65c-2.33,0-4.22,1.81-4.22,4.05s1.89,4.05,4.22,4.05,4.22-1.81,4.22-4.05-1.89-4.05-4.22-4.05Z"/>
        <path class="cls-2" d="M164.32,40.04c-2.11,0-3.82,1.64-3.82,3.66s1.71,3.66,3.82,3.66,3.82-1.64,3.82-3.66-1.71-3.66-3.82-3.66Z"/>
        <path class="cls-2" d="M185.95,40.42c-1.89,0-3.42,1.47-3.42,3.28s1.53,3.28,3.42,3.28,3.42-1.47,3.42-3.28-1.53-3.28-3.42-3.28Z"/>
        <path class="cls-2" d="M207.59,40.81c-1.67,0-3.02,1.29-3.02,2.89s1.35,2.89,3.02,2.89,3.02-1.29,3.02-2.89-1.35-2.89-3.02-2.89Z"/>
        <path class="cls-2" d="M229.22,41.19c-1.44,0-2.61,1.12-2.61,2.51s1.17,2.5,2.61,2.5,2.61-1.12,2.61-2.5-1.17-2.51-2.61-2.51Z"/>
        <path class="cls-2" d="M250.85,41.58c-1.22,0-2.21.95-2.21,2.12s.99,2.12,2.21,2.12,2.21-.95,2.21-2.12-.99-2.12-2.21-2.12Z"/>
        <path class="cls-2" d="M12.89,52.6c-3.66,0-6.63,2.85-6.63,6.36s2.97,6.36,6.63,6.36,6.63-2.85,6.63-6.36-2.97-6.36-6.63-6.36Z"/>
        <path class="cls-2" d="M34.53,52.99c-3.44,0-6.23,2.67-6.23,5.97s2.79,5.97,6.23,5.97,6.23-2.67,6.23-5.97-2.79-5.97-6.23-5.97Z"/>
        <path class="cls-2" d="M56.16,53.37c-3.22,0-5.83,2.5-5.83,5.59s2.61,5.59,5.83,5.59,5.83-2.5,5.83-5.59-2.61-5.59-5.83-5.59Z"/>
        <path class="cls-2" d="M77.79,53.76c-3,0-5.43,2.33-5.43,5.2s2.43,5.2,5.43,5.2,5.43-2.33,5.43-5.2-2.43-5.2-5.43-5.2Z"/>
        <ellipse class="cls-2" cx="99.42" cy="58.96" rx="5.03" ry="4.82"/>
        <path class="cls-2" d="M121.06,54.53c-2.55,0-4.62,1.98-4.62,4.43s2.07,4.43,4.62,4.43,4.62-1.98,4.62-4.43-2.07-4.43-4.62-4.43Z"/>
        <path class="cls-2" d="M142.69,54.91c-2.33,0-4.22,1.81-4.22,4.05s1.89,4.05,4.22,4.05,4.22-1.81,4.22-4.05-1.89-4.05-4.22-4.05Z"/>
        <ellipse class="cls-2" cx="164.32" cy="58.96" rx="3.82" ry="3.66"/>
        <path class="cls-2" d="M185.95,55.68c-1.89,0-3.42,1.47-3.42,3.28s1.53,3.28,3.42,3.28,3.42-1.47,3.42-3.28-1.53-3.28-3.42-3.28Z"/>
        <path class="cls-2" d="M207.59,56.07c-1.67,0-3.02,1.29-3.02,2.89s1.35,2.89,3.02,2.89,3.02-1.29,3.02-2.89-1.35-2.89-3.02-2.89Z"/>
        <path class="cls-2" d="M229.22,56.45c-1.44,0-2.61,1.12-2.61,2.5s1.17,2.5,2.61,2.5,2.61-1.12,2.61-2.5-1.17-2.5-2.61-2.5Z"/>
        <path class="cls-2" d="M250.85,56.84c-1.22,0-2.21.95-2.21,2.12s.99,2.12,2.21,2.12,2.21-.95,2.21-2.12-.99-2.12-2.21-2.12Z"/>
        <path class="cls-2" d="M12.89,67.86c-3.66,0-6.63,2.85-6.63,6.36s2.97,6.36,6.63,6.36,6.63-2.85,6.63-6.36-2.97-6.36-6.63-6.36Z"/>
        <path class="cls-2" d="M34.53,68.25c-3.44,0-6.23,2.67-6.23,5.97s2.79,5.97,6.23,5.97,6.23-2.67,6.23-5.97-2.79-5.97-6.23-5.97Z"/>
        <path class="cls-2" d="M56.16,68.63c-3.22,0-5.83,2.5-5.83,5.59s2.61,5.59,5.83,5.59,5.83-2.5,5.83-5.59-2.61-5.59-5.83-5.59Z"/>
        <path class="cls-2" d="M77.79,69.02c-3,0-5.43,2.33-5.43,5.2s2.43,5.2,5.43,5.2,5.43-2.33,5.43-5.2-2.43-5.2-5.43-5.2Z"/>
        <path class="cls-2" d="M99.42,69.4c-2.78,0-5.03,2.16-5.03,4.82s2.25,4.82,5.03,4.82,5.03-2.16,5.03-4.82-2.25-4.82-5.03-4.82Z"/>
        <path class="cls-2" d="M121.06,69.79c-2.55,0-4.62,1.98-4.62,4.43s2.07,4.43,4.62,4.43,4.62-1.98,4.62-4.43-2.07-4.43-4.62-4.43Z"/>
        <path class="cls-2" d="M142.69,70.17c-2.33,0-4.22,1.81-4.22,4.05s1.89,4.05,4.22,4.05,4.22-1.81,4.22-4.05-1.89-4.05-4.22-4.05Z"/>
        <path class="cls-2" d="M164.32,70.56c-2.11,0-3.82,1.64-3.82,3.66s1.71,3.66,3.82,3.66,3.82-1.64,3.82-3.66-1.71-3.66-3.82-3.66Z"/>
        <path class="cls-2" d="M185.95,70.94c-1.89,0-3.42,1.47-3.42,3.28s1.53,3.28,3.42,3.28,3.42-1.47,3.42-3.28-1.53-3.28-3.42-3.28Z"/>
        <path class="cls-2" d="M207.59,71.33c-1.67,0-3.02,1.29-3.02,2.89s1.35,2.89,3.02,2.89,3.02-1.29,3.02-2.89-1.35-2.89-3.02-2.89Z"/>
        <path class="cls-2" d="M229.22,71.71c-1.44,0-2.61,1.12-2.61,2.5s1.17,2.5,2.61,2.5,2.61-1.12,2.61-2.5-1.17-2.5-2.61-2.5Z"/>
        <path class="cls-2" d="M250.85,72.1c-1.22,0-2.21.95-2.21,2.12s.99,2.12,2.21,2.12,2.21-.95,2.21-2.12-.99-2.12-2.21-2.12Z"/>
      </g>
    </g>
  </g>
</svg>