<?xml version="1.0" encoding="UTF-8"?>
<svg id="_레이어_2" data-name="레이어_2" xmlns="http://www.w3.org/2000/svg" viewBox="0 0 134.4 63.97">
  <defs>
    <style>
      .cls-1 {
        fill: #3c3a3a;
        stroke: #3c3a3a;
        stroke-linejoin: round;
        stroke-width: 1.98px;
      }

      .cls-2 {
        fill: #f08719;
      }

      .cls-3 {
        fill: #fff;
      }
    </style>
  </defs>
  <g id="_레이어_1-2" data-name="레이어_1">
    <g>
      <ellipse class="cls-3" cx="67.2" cy="31.99" rx="67.2" ry="31.99"/>
      <path class="cls-1" d="M120.59,31.02c0-6.92-5.8-13.35-16.36-18.13l.06-.03-.55-.24c-.51-.22-1.04-.45-1.66-.71h-.14c-9.66-3.9-21.99-6.05-34.74-6.05s-25.09,2.14-34.74,6.04l-.07-.02-.09.04c-.6.24-1.13.47-1.64.7l-.55.24.06.03c-10.55,4.78-16.36,11.2-16.36,18.13s5.8,13.35,16.35,18.12l-.06.03.55.24c.51.23,1.05.46,1.66.7h.15s0,.01,0,.01c9.66,3.89,21.99,6.04,34.74,6.04s25.09-2.14,34.74-6.04l.07.02.09-.04c.59-.24,1.13-.47,1.64-.7l.55-.24-.06-.03c10.55-4.78,16.35-11.2,16.35-18.12ZM95.05,16.46c2.52-.77,4.93-1.65,7.19-2.64.62.26,1.26.54,1.89.84,8.99,4.21,14.2,9.69,14.7,15.43h-17.5c-.24-4.93-2.41-9.63-6.28-13.64ZM93.51,47.06c2.18.63,4.29,1.36,6.26,2.15-5.13,1.93-10.88,3.35-17.12,4.24,4.15-1.55,7.87-3.74,10.86-6.39ZM80.39,31.95c-.08,3.69-.63,7.18-1.64,10.38-7.57-.82-15.55-.82-23.1,0-1.01-3.2-1.56-6.69-1.64-10.38h26.38ZM41.14,16.98c4.01,1.12,8.31,1.97,12.79,2.53-1.01,3.3-1.56,6.86-1.64,10.58h-17.5c.25-4.76,2.44-9.29,6.35-13.12ZM55.65,19.72c7.55.82,15.59.82,23.1,0,1.01,3.21,1.56,6.7,1.64,10.38h-26.38c.08-3.68.63-7.17,1.64-10.38ZM54.53,17.74c-4.11-.5-8.06-1.25-11.76-2.23.46-.39.93-.76,1.41-1.11,4.75-3.42,10.66-5.66,17.15-6.51-2.79,2.01-5.18,5.46-6.8,9.84ZM34.79,31.95h17.5c.08,3.73.63,7.28,1.64,10.58-4.47.56-8.76,1.41-12.79,2.53-3.91-3.82-6.1-8.35-6.35-13.12ZM54.53,44.31c1.62,4.38,4.01,7.83,6.8,9.84-6.49-.85-12.41-3.09-17.15-6.51-.48-.35-.95-.72-1.41-1.11,3.7-.98,7.65-1.72,11.76-2.23ZM99.61,31.95c-.25,4.77-2.45,9.29-6.35,13.12-4.01-1.12-8.31-1.97-12.79-2.53,1.01-3.3,1.56-6.86,1.64-10.58h17.51ZM99.61,30.1h-17.51c-.08-3.73-.63-7.28-1.64-10.58,4.47-.56,8.76-1.41,12.79-2.53,3.91,3.82,6.1,8.35,6.35,13.12ZM93.51,14.99c-2.98-2.65-6.69-4.84-10.85-6.39,6.24.9,11.98,2.32,17.11,4.24-1.96.79-4.06,1.51-6.26,2.15ZM79.87,17.74c-1.62-4.38-4.01-7.83-6.8-9.84,6.49.85,12.41,3.09,17.15,6.51.48.35.95.72,1.41,1.11-3.7.98-7.65,1.72-11.76,2.23ZM56.27,17.93c.53-1.38,1.15-2.67,1.84-3.84,2.5-4.24,5.73-6.58,9.09-6.58s6.59,2.34,9.09,6.58c.69,1.17,1.31,2.46,1.84,3.84-7.12.74-14.74.74-21.85,0ZM40.89,14.99c-2.19-.63-4.29-1.36-6.26-2.15,5.13-1.92,10.87-3.35,17.11-4.24-4.16,1.56-7.87,3.74-10.85,6.39ZM51.75,53.46c-6.24-.89-11.99-2.32-17.12-4.24,1.97-.79,4.06-1.51,6.26-2.15,2.99,2.65,6.7,4.84,10.86,6.4ZM78.12,44.12c-.53,1.38-1.15,2.67-1.84,3.84-2.5,4.24-5.73,6.57-9.09,6.57s-6.59-2.33-9.09-6.57c-.69-1.17-1.31-2.47-1.84-3.84,7.12-.74,14.73-.74,21.85,0ZM79.87,44.31c4.11.5,8.06,1.25,11.76,2.23-.46.39-.93.76-1.41,1.11-4.75,3.42-10.66,5.66-17.15,6.51,2.79-2.01,5.18-5.46,6.8-9.84ZM15.57,30.1c.5-5.75,5.71-11.22,14.7-15.43.63-.3,1.27-.58,1.89-.84,2.24.98,4.66,1.87,7.19,2.64-3.87,4.01-6.04,8.71-6.28,13.64H15.57ZM33.07,31.95c.24,4.93,2.41,9.63,6.28,13.64-2.53.77-4.93,1.65-7.19,2.64-.62-.26-1.25-.54-1.89-.84-8.99-4.21-14.2-9.69-14.7-15.44h17.5ZM118.83,31.95c-.5,5.75-5.71,11.22-14.7,15.44-.64.3-1.27.58-1.89.84-2.24-.98-4.66-1.87-7.19-2.64,3.87-4.01,6.04-8.71,6.28-13.64h17.5ZM32.45,12.14v.02h0v-.02s0,0,0,0ZM101.95,49.9h0s0,0,0,0h0Z"/>
      <g>
        <path class="cls-2" d="M101.65,28.61c-1.61,9.51-2.91,10.81-12.42,12.42,9.51,1.61,10.81,2.91,12.42,12.42,1.61-9.51,2.91-10.81,12.42-12.42-9.51-1.61-10.81-2.91-12.42-12.42Z"/>
        <path class="cls-2" d="M113.15,26.09c-.8,4.75-1.46,5.41-6.21,6.21,4.75.8,5.41,1.46,6.21,6.21.8-4.75,1.46-5.41,6.21-6.21-4.75-.8-5.41-1.46-6.21-6.21Z"/>
        <path class="cls-2" d="M106.49,30.16c.8-4.75,1.46-5.41,6.21-6.21-4.75-.8-5.41-1.46-6.21-6.21-.8,4.75-1.46,5.41-6.21,6.21,4.75.8,5.41,1.46,6.21,6.21Z"/>
      </g>
    </g>
  </g>
</svg>