<?xml version="1.0" encoding="UTF-8"?>
<svg id="_레이어_2" data-name="레이어_2" xmlns="http://www.w3.org/2000/svg" viewBox="0 0 169.3 93.68">
  <defs>
    <style>
      .cls-1, .cls-2 {
        stroke: #eb8cb7;
        stroke-miterlimit: 10;
        stroke-width: 1.31px;
      }

      .cls-1, .cls-3 {
        fill: #eb8cb7;
      }

      .cls-2, .cls-4 {
        fill: #fff;
      }

      .cls-5 {
        fill: #df87af;
      }

      .cls-6 {
        fill: #231815;
      }
    </style>
  </defs>
  <g id="_레이어_1-2" data-name="레이어_1">
    <g>
      <rect class="cls-4" x="0" width="169.3" height="93.68" rx="11.33" ry="11.33"/>
      <g>
        <rect class="cls-2" x="50.02" y="61.16" width="95.09" height="16.81" rx="6.43" ry="6.43"/>
        <rect class="cls-1" x="24.19" y="61.16" width="41.5" height="16.81" rx="6.43" ry="6.43"/>
        <g>
          <path class="cls-4" d="M37.01,71.08c.03.08.08.12.13.12.04,0,.09-.06.13-.18l.99-3.07c.09-.24.15-.45.17-.61.03-.17.04-.29.04-.36,0-.17-.05-.28-.16-.34-.11-.06-.22-.1-.34-.13-.12-.03-.23-.05-.34-.07-.11-.02-.16-.08-.16-.18,0-.09.01-.15.04-.17.03-.03.08-.04.16-.04.12,0,.28.01.47.03.19.02.43.03.7.03.33,0,.6-.01.8-.03.2-.02.33-.03.4-.03.09,0,.14.01.17.03s.03.08.03.17c0,.15-.05.23-.15.23s-.23.03-.38.08c-.18.06-.33.19-.45.4-.12.21-.26.52-.41.93l-1.89,5.27c-.09.24-.19.36-.31.36-.1,0-.16-.03-.19-.1-.03-.07-.06-.16-.11-.28l-1.54-4.03-1.57,4.04c-.04.12-.09.21-.12.27-.04.06-.1.09-.19.09s-.15-.03-.18-.1-.07-.16-.12-.28l-2.17-5.94c-.08-.2-.17-.34-.27-.44-.11-.09-.21-.17-.31-.22-.1-.05-.18-.09-.26-.12-.07-.03-.11-.09-.11-.18s.01-.14.03-.17c.02-.02.08-.03.17-.03.11,0,.35.01.73.04.38.03.89.04,1.56.04h2.9c.38,0,.68-.02.9-.05.23-.03.38-.05.47-.05.19,0,.28.07.28.2,0,.09-.05.15-.16.18-.11.03-.22.06-.34.08-.12.02-.23.06-.34.1-.11.04-.16.13-.16.25,0,.09.02.22.06.39.04.17.1.38.19.62l1.19,3.26ZM34.4,68.71c.05-.14.07-.29.07-.45,0-.04-.02-.12-.05-.24-.03-.12-.07-.24-.12-.38s-.11-.27-.17-.41c-.06-.13-.12-.24-.19-.33-.22-.29-.57-.43-1.04-.43-.3,0-.53.05-.7.15-.17.1-.26.23-.26.4,0,.19.03.37.1.55l1.31,3.56c.03.08.07.12.1.12s.07-.05.1-.15l.7-1.92c.06-.17.11-.32.16-.46Z"/>
          <path class="cls-4" d="M46.55,71.08c.03.08.08.12.13.12.04,0,.09-.06.13-.18l.99-3.07c.09-.24.15-.45.17-.61.03-.17.04-.29.04-.36,0-.17-.05-.28-.16-.34-.11-.06-.22-.1-.34-.13-.12-.03-.23-.05-.34-.07-.11-.02-.16-.08-.16-.18,0-.09.01-.15.04-.17.03-.03.08-.04.16-.04.12,0,.28.01.47.03.19.02.43.03.7.03.33,0,.6-.01.8-.03.2-.02.33-.03.4-.03.09,0,.14.01.17.03s.03.08.03.17c0,.15-.05.23-.15.23s-.23.03-.38.08c-.18.06-.33.19-.45.4-.12.21-.26.52-.41.93l-1.89,5.27c-.09.24-.19.36-.31.36-.1,0-.16-.03-.19-.1-.03-.07-.06-.16-.11-.28l-1.54-4.03-1.57,4.04c-.04.12-.09.21-.12.27-.04.06-.1.09-.19.09s-.15-.03-.18-.1-.07-.16-.12-.28l-2.17-5.94c-.08-.2-.17-.34-.27-.44-.11-.09-.21-.17-.31-.22-.1-.05-.18-.09-.26-.12-.07-.03-.11-.09-.11-.18s.01-.14.03-.17c.02-.02.08-.03.17-.03.11,0,.35.01.73.04.38.03.89.04,1.56.04h2.9c.38,0,.68-.02.9-.05.23-.03.38-.05.47-.05.19,0,.28.07.28.2,0,.09-.05.15-.16.18-.11.03-.22.06-.34.08-.12.02-.23.06-.34.1-.11.04-.16.13-.16.25,0,.09.02.22.06.39.04.17.1.38.19.62l1.19,3.26ZM43.95,68.71c.05-.14.07-.29.07-.45,0-.04-.02-.12-.05-.24-.03-.12-.07-.24-.12-.38s-.11-.27-.17-.41c-.06-.13-.12-.24-.19-.33-.22-.29-.57-.43-1.04-.43-.3,0-.53.05-.7.15-.17.1-.26.23-.26.4,0,.19.03.37.1.55l1.31,3.56c.03.08.07.12.1.12s.07-.05.1-.15l.7-1.92c.06-.17.11-.32.16-.46Z"/>
          <path class="cls-4" d="M56.1,71.08c.03.08.08.12.13.12.04,0,.09-.06.13-.18l.99-3.07c.09-.24.15-.45.17-.61.03-.17.04-.29.04-.36,0-.17-.05-.28-.16-.34-.11-.06-.22-.1-.34-.13-.12-.03-.23-.05-.34-.07-.11-.02-.16-.08-.16-.18,0-.09.01-.15.04-.17.03-.03.08-.04.16-.04.12,0,.28.01.47.03.19.02.43.03.7.03.33,0,.6-.01.8-.03.2-.02.33-.03.4-.03.09,0,.14.01.17.03s.03.08.03.17c0,.15-.05.23-.15.23s-.23.03-.38.08c-.18.06-.33.19-.45.4-.12.21-.26.52-.41.93l-1.89,5.27c-.09.24-.19.36-.31.36-.1,0-.16-.03-.19-.1-.03-.07-.06-.16-.11-.28l-1.54-4.03-1.57,4.04c-.04.12-.09.21-.12.27-.04.06-.1.09-.19.09s-.15-.03-.18-.1-.07-.16-.12-.28l-2.17-5.94c-.08-.2-.17-.34-.27-.44-.11-.09-.21-.17-.31-.22-.1-.05-.18-.09-.26-.12-.07-.03-.11-.09-.11-.18s.01-.14.03-.17c.02-.02.08-.03.17-.03.11,0,.35.01.73.04.38.03.89.04,1.56.04h2.9c.38,0,.68-.02.9-.05.23-.03.38-.05.47-.05.19,0,.28.07.28.2,0,.09-.05.15-.16.18-.11.03-.22.06-.34.08-.12.02-.23.06-.34.1-.11.04-.16.13-.16.25,0,.09.02.22.06.39.04.17.1.38.19.62l1.19,3.26ZM53.49,68.71c.05-.14.07-.29.07-.45,0-.04-.02-.12-.05-.24-.03-.12-.07-.24-.12-.38s-.11-.27-.17-.41c-.06-.13-.12-.24-.19-.33-.22-.29-.57-.43-1.04-.43-.3,0-.53.05-.7.15-.17.1-.26.23-.26.4,0,.19.03.37.1.55l1.31,3.56c.03.08.07.12.1.12s.07-.05.1-.15l.7-1.92c.06-.17.11-.32.16-.46Z"/>
          <path class="cls-4" d="M60.5,71.96c.15.17.22.38.22.63s-.07.46-.22.63c-.15.17-.32.25-.51.25s-.36-.08-.51-.25c-.15-.17-.22-.38-.22-.63s.07-.46.22-.63c.15-.17.32-.25.51-.25s.36.08.51.25Z"/>
        </g>
        <g>
          <path class="cls-6" d="M70.74,66.41c0,.14.02.22.05.22s.08-.03.13-.1l.18-.22c.23-.29.5-.51.8-.66.3-.15.62-.23.95-.23.68,0,1.21.23,1.59.7.38.47.57,1.16.57,2.08v3.56c0,.34.08.57.25.68.08.04.16.07.24.08.08.01.16.02.22.03.07.01.12.03.16.07.04.03.06.09.06.18,0,.18-.1.27-.3.27-.15,0-.34-.02-.56-.06-.22-.04-.47-.06-.76-.06s-.53.02-.73.06c-.2.04-.36.06-.47.06-.18,0-.27-.09-.27-.28,0-.08.01-.13.04-.17.03-.03.07-.06.12-.07.05-.01.1-.02.17-.02.06,0,.12-.02.19-.06.13-.07.21-.15.23-.26.02-.1.03-.26.03-.46v-3.35c0-.66-.12-1.16-.37-1.5s-.59-.51-1.05-.51c-.42,0-.77.14-1.03.43-.27.29-.4.73-.4,1.33v3.6c0,.19.01.33.04.44.03.11.1.19.21.24.1.06.19.09.27.09.08,0,.15.01.21.02.06.01.11.03.14.07.03.03.05.1.05.2,0,.17-.1.25-.3.25-.15,0-.34-.02-.56-.06-.22-.04-.47-.06-.74-.06s-.52.02-.72.06c-.2.04-.36.06-.48.06-.18,0-.27-.09-.27-.28,0-.08.01-.13.04-.17.03-.03.06-.06.11-.07.04-.01.1-.02.16-.02.06,0,.12-.02.19-.06.12-.05.2-.13.23-.23.03-.1.05-.26.05-.48v-3.91c0-.3-.04-.5-.11-.6-.07-.1-.15-.16-.24-.18-.09-.02-.17-.04-.24-.04-.07,0-.11-.06-.11-.17s.07-.21.22-.29c.14-.08.35-.21.63-.37.32-.19.55-.37.68-.55s.25-.27.35-.27c.03,0,.07.03.1.08.03.06.05.14.05.26v.68Z"/>
          <path class="cls-6" d="M77.67,68.34c-.09,0-.14.02-.17.05-.02.03-.03.1-.03.22v.4c0,1.03.22,1.84.65,2.44.44.6,1,.89,1.7.89.31,0,.58-.05.8-.15.23-.1.41-.21.56-.33.15-.12.27-.23.35-.33.08-.1.14-.15.17-.15.09,0,.13.06.13.18s-.07.28-.2.48c-.13.2-.32.4-.57.59-.25.19-.54.36-.89.51-.34.14-.73.22-1.16.22-.45,0-.86-.09-1.23-.27-.37-.18-.69-.44-.95-.79-.26-.34-.47-.76-.61-1.24-.14-.49-.22-1.03-.22-1.64s.08-1.16.24-1.65c.16-.49.38-.91.67-1.25.29-.34.63-.61,1.02-.8.39-.19.82-.28,1.28-.28.4,0,.76.07,1.09.21s.61.32.85.55c.23.23.41.5.54.81.13.31.19.64.19.99,0,.14-.04.24-.13.28-.09.04-.23.07-.43.07h-3.66ZM80.06,67.64c.25-.12.37-.36.37-.73,0-.28-.11-.53-.34-.76-.23-.23-.52-.35-.87-.35-.39,0-.72.15-1.01.45-.29.3-.48.67-.56,1.13l-.05.27v.03c0,.1.07.15.2.15h1.08c.54,0,.94-.06,1.18-.18Z"/>
          <path class="cls-6" d="M89.12,70.79c.03.08.08.12.13.12.04,0,.09-.06.13-.18l.99-3.07c.09-.24.15-.45.17-.61.03-.17.04-.29.04-.36,0-.17-.05-.28-.16-.34-.11-.06-.22-.1-.34-.13-.12-.03-.23-.05-.34-.07-.11-.02-.16-.08-.16-.18,0-.09.01-.15.04-.17.03-.03.08-.04.16-.04.12,0,.28.01.47.03.19.02.43.03.7.03.33,0,.6-.01.8-.03.2-.02.33-.03.4-.03.09,0,.14.01.17.03s.03.08.03.17c0,.15-.05.23-.15.23s-.23.03-.38.08c-.18.06-.33.19-.45.4-.12.21-.26.52-.41.93l-1.89,5.27c-.09.24-.19.36-.31.36-.1,0-.16-.03-.19-.1-.03-.07-.06-.16-.11-.28l-1.54-4.03-1.57,4.04c-.04.12-.09.21-.12.27-.04.06-.1.09-.19.09s-.15-.03-.18-.1-.07-.16-.12-.28l-2.17-5.94c-.08-.2-.17-.34-.27-.44-.11-.09-.21-.17-.31-.22-.1-.05-.18-.09-.26-.12-.07-.03-.11-.09-.11-.18s.01-.14.03-.17c.02-.02.08-.03.17-.03.11,0,.35.01.73.04.38.03.89.04,1.56.04h2.9c.38,0,.68-.02.9-.05.23-.03.38-.05.47-.05.19,0,.28.07.28.2,0,.09-.05.15-.16.18-.11.03-.22.06-.34.08-.12.02-.23.06-.34.1-.11.04-.16.13-.16.25,0,.09.02.22.06.39.04.17.1.38.19.62l1.19,3.26ZM86.51,68.42c.05-.14.07-.29.07-.45,0-.04-.02-.12-.05-.24-.03-.12-.07-.24-.12-.38s-.11-.27-.17-.41c-.06-.13-.12-.24-.19-.33-.22-.29-.57-.43-1.04-.43-.3,0-.53.05-.7.15-.17.1-.26.23-.26.4,0,.19.03.37.1.55l1.31,3.56c.03.08.07.12.1.12s.07-.05.1-.15l.7-1.92c.06-.17.11-.32.16-.46Z"/>
          <path class="cls-6" d="M95.45,70.69c-.52,1.38-.9,2.48-1.15,3.31-.25.82-.42,1.37-.51,1.63-.06.2-.11.36-.15.49-.04.13-.1.23-.17.31-.07.08-.17.14-.28.17-.12.03-.27.05-.47.05-.42,0-.63-.2-.63-.6,0-.33.05-.57.14-.7.09-.14.3-.21.6-.21h.07c.17,0,.3-.02.41-.07.1-.05.21-.21.31-.49l.35-.96c.08-.2.12-.37.12-.51,0-.06-.02-.18-.06-.36-.04-.19-.1-.43-.19-.71l-1.36-4.16c-.13-.41-.26-.74-.37-.99s-.25-.43-.39-.53c-.08-.06-.15-.09-.23-.12-.08-.02-.15-.04-.21-.07-.06-.02-.11-.05-.15-.08-.04-.03-.06-.09-.06-.17,0-.09.02-.14.07-.17.04-.02.12-.03.22-.03.09,0,.26.01.51.03.25.02.59.03,1.01.03s.74-.01.96-.03c.22-.02.35-.03.4-.03.13,0,.2.06.2.18,0,.11-.04.19-.12.22-.08.04-.17.07-.27.1-.1.03-.19.06-.27.09-.08.03-.12.1-.12.2,0,.07.01.19.03.36.02.18.08.39.17.65l.93,2.95c.04.13.09.2.13.2.03,0,.08-.07.13-.2l1.01-2.83c.08-.22.13-.43.17-.61.03-.19.05-.3.05-.35,0-.15-.05-.26-.15-.31s-.21-.1-.32-.12c-.12-.03-.22-.06-.31-.1-.09-.04-.14-.12-.14-.24,0-.09.01-.14.04-.16.03-.02.08-.02.16-.02.09,0,.23,0,.41.02.19.02.44.02.75.02.27,0,.49,0,.66-.02.18-.02.31-.02.4-.02s.14.01.15.03c.01.02.02.08.02.17,0,.12-.04.19-.11.21-.07.02-.16.04-.27.07-.11.03-.22.1-.36.22-.13.11-.25.32-.36.63l-1.36,3.65Z"/>
          <path class="cls-6" d="M99.11,68.34c-.09,0-.14.02-.17.05-.02.03-.03.1-.03.22v.4c0,1.03.22,1.84.65,2.44.44.6,1,.89,1.7.89.31,0,.58-.05.8-.15.23-.1.41-.21.56-.33.15-.12.27-.23.35-.33.08-.1.14-.15.17-.15.09,0,.13.06.13.18s-.07.28-.2.48c-.13.2-.32.4-.57.59-.25.19-.54.36-.89.51-.34.14-.73.22-1.16.22-.45,0-.86-.09-1.23-.27-.37-.18-.69-.44-.95-.79-.26-.34-.47-.76-.61-1.24-.14-.49-.22-1.03-.22-1.64s.08-1.16.24-1.65c.16-.49.38-.91.67-1.25.29-.34.63-.61,1.02-.8.39-.19.82-.28,1.28-.28.4,0,.76.07,1.09.21s.61.32.85.55c.23.23.41.5.54.81.13.31.19.64.19.99,0,.14-.04.24-.13.28-.09.04-.23.07-.43.07h-3.66ZM101.5,67.64c.25-.12.37-.36.37-.73,0-.28-.11-.53-.34-.76-.23-.23-.52-.35-.87-.35-.39,0-.72.15-1.01.45-.29.3-.48.67-.56,1.13l-.05.27v.03c0,.1.07.15.2.15h1.08c.54,0,.94-.06,1.18-.18Z"/>
          <path class="cls-6" d="M108.44,71.15c0,.35.02.62.07.8.04.18.16.27.35.27.12,0,.23-.06.33-.17.1-.11.2-.17.3-.17.13,0,.2.08.2.25,0,.09-.05.2-.15.32-.1.13-.22.25-.36.37-.14.12-.29.23-.45.31-.16.09-.31.13-.44.13-.29,0-.53-.09-.71-.28-.19-.19-.34-.47-.47-.85h-.1l-.35.3c-.29.24-.56.45-.81.62-.26.17-.54.26-.85.26-.35,0-.64-.12-.86-.36-.22-.24-.32-.57-.32-.99,0-.36.06-.68.18-.96.12-.28.3-.53.53-.75.23-.23.51-.44.84-.64s.69-.4,1.09-.6l.42-.22c.09-.04.14-.09.16-.14.02-.05.03-.14.03-.26v-1.18c0-.46-.04-.8-.11-1.01-.07-.21-.25-.31-.54-.31s-.52.1-.68.29c-.17.19-.33.47-.48.82-.12.28-.26.51-.41.7-.15.19-.39.29-.72.29-.09,0-.16-.03-.22-.08-.06-.05-.09-.13-.09-.22,0-.24.07-.5.22-.78.15-.28.36-.53.63-.75.27-.23.59-.41.96-.56.37-.15.77-.22,1.21-.22.35,0,.64.04.86.12.22.08.38.2.49.36.11.16.18.36.22.6.03.24.05.51.05.82v3.84ZM106.98,69.28s-.09.02-.17.07l-.55.27c-.65.33-.98.88-.98,1.66,0,.32.06.56.17.73.12.17.27.25.46.25.13,0,.27-.04.4-.11s.25-.17.36-.3c.11-.13.2-.28.27-.46.07-.18.11-.38.11-.6v-1.31c0-.13-.03-.2-.08-.2Z"/>
          <path class="cls-6" d="M111.63,66.36c0,.1.02.15.05.15.02,0,.07-.04.15-.12l.33-.36c.35-.42.73-.63,1.13-.63.3,0,.55.11.76.33.21.22.31.5.31.83,0,.24-.07.44-.22.6-.15.16-.33.23-.54.23-.17,0-.31-.04-.43-.12-.12-.08-.23-.17-.33-.27s-.19-.19-.28-.27c-.09-.08-.18-.12-.27-.12-.41,0-.61.52-.61,1.56v3.6c0,.19.02.33.07.42.04.09.13.17.27.22.13.07.25.11.36.12.11.02.2.03.27.05.07.02.13.04.17.07.04.03.07.09.07.18,0,.07-.03.12-.09.17-.06.05-.15.07-.27.07-.22,0-.46-.02-.72-.06-.26-.04-.53-.06-.81-.06-.26,0-.51.02-.73.05-.23.03-.43.05-.6.05-.2,0-.3-.09-.3-.26,0-.08.02-.13.05-.16.03-.03.08-.05.13-.07.06-.02.12-.03.2-.04.08-.01.16-.04.25-.08.15-.08.25-.16.27-.24.03-.08.04-.2.04-.36v-4.24c0-.2-.04-.33-.11-.4-.07-.07-.15-.11-.23-.13-.08-.02-.16-.04-.23-.06-.07-.02-.11-.07-.11-.17,0-.12.07-.21.22-.27.14-.06.33-.17.56-.32.32-.22.55-.42.7-.6.15-.18.27-.27.37-.27.11,0,.16.12.16.35v.65Z"/>
          <path class="cls-6" d="M115.19,71.67c.15.17.22.38.22.63s-.07.46-.22.63c-.15.17-.32.25-.51.25s-.36-.08-.51-.25c-.15-.17-.22-.38-.22-.63s.07-.46.22-.63c.15-.17.32-.25.51-.25s.36.08.51.25Z"/>
          <path class="cls-6" d="M120.53,65.51c.23.06.43.14.6.23.17.1.31.2.41.32.1.12.16.25.16.4,0,.42-.04.75-.12.99s-.19.36-.32.36c-.15,0-.3-.16-.45-.48-.1-.21-.19-.41-.27-.59-.08-.18-.16-.33-.25-.46-.09-.12-.19-.22-.29-.29-.11-.07-.23-.11-.39-.11-.2,0-.4.07-.61.22-.21.15-.4.36-.56.64-.17.28-.3.62-.41,1.01-.11.4-.16.85-.16,1.35s.06.98.17,1.38c.12.41.28.75.48,1.03.2.28.44.49.72.64.28.15.58.22.91.22.21,0,.4-.04.57-.11s.31-.15.43-.24c.12-.09.21-.17.28-.24.07-.07.12-.11.16-.11.14,0,.22.07.22.22,0,.1-.06.23-.17.39s-.28.31-.48.46c-.2.15-.45.28-.74.39-.29.11-.6.17-.93.17-.44,0-.85-.09-1.23-.27s-.7-.44-.98-.78c-.28-.34-.49-.75-.65-1.23-.15-.48-.23-1.02-.23-1.62s.09-1.17.26-1.67c.17-.49.41-.91.7-1.26.3-.35.65-.62,1.06-.8.41-.19.86-.28,1.34-.28.27,0,.51.03.75.09Z"/>
          <path class="cls-6" d="M122.29,67.74c.17-.49.4-.9.71-1.24.31-.34.68-.61,1.11-.8.43-.19.91-.28,1.44-.28s.97.1,1.39.29c.42.19.78.46,1.07.81.29.35.52.76.68,1.25s.24,1.03.24,1.62-.08,1.12-.25,1.61-.4.9-.7,1.24c-.3.34-.68.61-1.12.8-.44.19-.94.28-1.49.28-.5,0-.95-.1-1.36-.29-.41-.19-.76-.46-1.05-.81-.29-.35-.52-.76-.68-1.25-.16-.49-.24-1.02-.24-1.61s.08-1.14.25-1.62ZM124.03,66.73c-.34.56-.51,1.36-.51,2.4,0,1.17.18,2.09.56,2.74.37.66.85.99,1.45.99s1.09-.28,1.43-.85c.35-.57.52-1.37.52-2.39,0-1.17-.19-2.08-.56-2.74-.37-.66-.85-.99-1.43-.99-.63,0-1.12.28-1.46.84Z"/>
          <path class="cls-6" d="M131.3,66.41c0,.14.02.22.05.22.02,0,.06-.03.12-.1l.17-.22c.21-.29.45-.51.74-.66s.58-.23.88-.23c.45,0,.82.12,1.11.36.29.24.54.56.76.94h.08c.54-.87,1.22-1.31,2.03-1.31.56,0,1.02.22,1.37.66.35.44.53,1.03.53,1.77v3.91c0,.2.02.35.05.45.03.1.1.18.2.23.09.04.17.07.26.08.08.01.15.02.22.04.06.02.11.04.15.07.04.03.06.09.06.17,0,.18-.1.27-.3.27-.17,0-.36-.02-.58-.06-.22-.04-.47-.06-.74-.06s-.52.02-.72.06c-.2.04-.36.06-.48.06-.18,0-.27-.09-.27-.28,0-.08.01-.13.04-.16.03-.03.06-.05.11-.06.04-.01.1-.02.16-.03.06-.01.12-.03.19-.07.12-.05.2-.14.23-.24.03-.1.05-.26.05-.47v-2.77c0-.85-.08-1.5-.24-1.94-.16-.44-.49-.66-.99-.66-.38,0-.68.14-.92.43-.23.29-.35.73-.35,1.33v3.61c0,.2.01.35.04.45.03.1.09.18.19.23.09.04.17.07.26.08.08.01.15.02.22.04.06.02.11.04.15.07.04.03.06.09.06.17,0,.18-.1.27-.3.27-.17,0-.36-.02-.59-.06-.23-.04-.47-.06-.73-.06-.28,0-.52.02-.72.06-.2.04-.36.06-.48.06-.18,0-.26-.09-.26-.28,0-.08.01-.13.04-.17.03-.03.07-.06.12-.07.05-.01.1-.02.16-.02.06,0,.12-.02.18-.06.12-.07.2-.15.24-.24.04-.09.06-.25.06-.47v-2.77c0-.86-.09-1.51-.26-1.95-.17-.44-.5-.65-.99-.65-.39,0-.7.14-.93.43-.23.29-.35.73-.35,1.33v3.61c0,.2.02.35.05.45.03.1.1.18.2.23.09.04.17.07.26.08.08.01.15.02.22.04.06.02.11.04.15.07.04.03.06.09.06.17,0,.18-.1.27-.3.27-.17,0-.36-.02-.58-.06-.22-.04-.47-.06-.74-.06s-.52.02-.72.06c-.2.04-.36.06-.48.06-.18,0-.27-.09-.27-.28,0-.08.01-.13.04-.16.03-.03.06-.05.11-.06.04-.01.1-.02.16-.03.06-.01.12-.03.19-.07.12-.05.2-.14.23-.24.03-.1.05-.26.05-.47v-3.91c0-.29-.04-.48-.12-.59-.08-.1-.16-.17-.25-.19-.09-.02-.17-.04-.25-.05-.08-.01-.12-.07-.12-.17,0-.14.08-.25.24-.31.16-.07.35-.16.57-.28.19-.11.34-.22.47-.33.13-.11.23-.21.31-.29.08-.08.15-.15.21-.2.06-.05.1-.07.13-.07s.06.03.08.1c.02.07.03.15.03.25v.7Z"/>
        </g>
      </g>
      <g>
        <g>
          <path class="cls-3" d="M73.09,17.65c-3.96,1.1-6.9,2.41-9.52,4.56,1.88,1.91,2.83,4.32,2.83,6.69,0,4.88-3.4,9.84-8.24,9.84-1.56,0-2.26-.85-2.26-1.91,0-2.9,2.97-5.66,5.87-6.58l.04.18c-3.47,1.17-5.73,4.07-5.73,6.4,0,.92.6,1.66,1.98,1.66,3.68,0,7.61-5.98,7.61-10.93,0-1.88-.81-3.68-2.26-5.2-2.9,2.44-5.45,5.91-8.56,11.18-1.77,3.01-2.87,4.67-4,6.55-3.68,6.02-8.67,11.85-17.94,14.47,2.41.6,4.71,1.03,6.93,1.03,5.8,0,11.61-2.41,16.03-7.78l.18.14c-6.05,7.18-12.88,7.82-16.21,7.82-2.72,0-5.2-.42-7.61-.99-3.11.81-6.69,1.27-10.86,1.27-9.41,0-13.2-1.63-13.2-3.08,0-1.34,3.01-2.34,6.65-2.34,5.77,0,11.75,2.3,17.41,3.75,8.74-2.58,13.45-8.6,18.08-15.96,4.74-7.57,8.21-12.74,12.84-16.28-2.41-2.34-6.4-3.93-11.57-3.93-17.87,0-26.71,12.17-26.71,20.03,0,3.68,2.09,6.65,7.47,6.65,7.82,0,16.66-10.19,16.66-15.43,0-1.84-.99-3.04-3.5-3.04-3.4,0-9.91,3.08-12.88,10.61l-.14-.07c2.8-7.22,9.16-10.72,13.06-10.72,2.87,0,3.75,1.56,3.75,3.43,0,6.9-8,15.43-16.95,15.43-5.45,0-7.64-3.04-7.64-6.86,0-8,8.99-20.2,26.89-20.2,5.38,0,9.31,1.59,11.75,3.96,2.69-2.02,5.77-3.47,9.73-4.53l.04.18ZM31.55,54.59c-5.63-1.49-10.76-3.79-16.74-3.79-3.82,0-6.47,1.03-6.47,2.16,0,1.31,3.64,2.87,13.02,2.87,3.93,0,7.25-.46,10.19-1.24Z"/>
          <g>
            <path class="cls-5" d="M73.09,17.65c-3.38.89-6.86,2.42-9.5,4.55,4.33,4.1,3.49,11.74-1.22,15.22-1.57,1.1-4.42,2.17-6.08.74-.54-.56-.54-1.39-.41-2.1.59-2.89,3.18-4.98,5.85-5.91.06-.02.13.02.15.09,0,0,.04.18.04.18.01.06-.02.11-.08.13-2.45.85-4.78,2.73-5.5,5.29-.44,1.43.17,2.61,1.76,2.51,4.02-.52,6.27-5.02,7.14-8.6.66-2.61-.05-5.37-1.98-7.27,0,0,.24.01.24.01-2.88,2.44-5.06,5.58-7.07,8.77-3.6,5.65-7.9,14.26-13.35,18.33-2.97,2.41-6.47,4.11-10.13,5.17v-.41c8.29,2.53,17.27.2,22.72-6.7.15-.2.38,0,.51.11.1.08.12.23.04.33-6.08,7.54-15.35,9.34-23.93,6.93-6.17,1.55-12.62,1.62-18.89.77-1.81-.36-3.92-.61-5.24-2.05-1.03-1.59,1.21-2.58,2.42-2.88,7.1-1.76,15.41,1.59,21.55,3.23,15.79-4.31,18.9-23,30.82-32.19,0,0-.03.47-.03.47-3.23-3.05-7.95-4.01-12.3-3.81-10.84.03-22.95,6.36-25.29,17.65-1.07,5.07,1.77,8.57,6.99,8.43,4.46-.13,8.41-2.95,11.44-6.04,2.15-2.24,7-8.48,4.08-11.32-1.82-1.19-4.33-.47-6.22.33-4.06,1.82-7.19,5.4-8.82,9.51-.05.12-.18.17-.29.11-.13-.05-.33-.16-.25-.34,2.09-5.3,6.78-10.08,12.62-10.81,3.47-.29,5,1.54,4.48,4.92-.91,5.48-5.05,10-9.88,12.49-3.99,1.92-9.56,2.98-13.16-.28-4.69-5.6.58-14.24,5.15-18.28,5.2-4.6,12.18-6.77,19.04-6.91,4.46-.22,9.6.78,12.77,3.96,2.89-2.17,6.27-3.59,9.75-4.51,0,0,.03.18.04.18h0ZM73.09,17.65s-.04-.18-.04-.18c-3.49.91-6.86,2.43-9.75,4.55-1.65-1.59-3.77-2.63-5.97-3.22-12.9-2.99-29.85,3.8-32.39,17.89-1.31,9.03,8.29,9.69,14.39,6.48,4-2.05,7.44-5.53,9.03-9.77.36-1.03.66-2.19.69-3.29.11-1.1-.13-2.29-.99-2.96-1.84-1.28-4.44-.61-6.38.2-4.17,1.81-7.38,5.49-9.02,9.69,0,0-.1-.27-.1-.27l.14.07-.29.11c1.66-4.22,4.86-7.89,9.03-9.77,5.83-2.59,9.86-.06,6.64,6.24-2.09,4.03-5.37,7.41-9.27,9.72-6.34,3.99-15.87,2.08-14.01-7.05,2.37-11.57,14.72-18.1,25.8-18.15,4.49-.21,9.36.78,12.74,3.96.14.13.12.36-.03.47-11.86,9.29-15.08,28.02-31.03,32.28-7.44-1.59-15.41-5.69-22.98-2.72-.41.23-.83.56-.87.93-.08.35.28.72.66.99,3.19,1.73,7.05,1.7,10.6,1.89,4.23.14,8.47-.25,12.56-1.24,2.12.5,4.27.88,6.44.97,6.57.45,13-2.62,17.13-7.69,0,0,.03.34.03.34l-.18-.14s.33-.03.33-.03c-4.05,5.03-10.39,8.13-16.88,7.84-2.15-.08-4.25-.51-6.32-1.02-.12-.03-.18-.15-.16-.26,3.52-1.3,7.2-2.71,10.14-5.23,5.37-3.98,9.74-12.65,13.29-18.21,2.02-3.2,4.23-6.36,7.16-8.84.07-.06.18-.05.24.01,1.99,1.95,2.75,4.9,2.05,7.58-.89,3.68-3.28,8.35-7.47,8.82-3.92-.02-1.66-4.87.17-6.27,1-.92,2.21-1.61,3.49-2.04l-.08.13s-.03-.18-.03-.18l.15.09c-2.6.88-5.17,2.93-5.74,5.72-.12.68-.13,1.44.36,1.95,1.58,1.35,4.34.32,5.87-.73,4.67-3.41,5.54-10.98,1.26-15.06,2.65-2.33,6.15-3.64,9.54-4.58h0Z"/>
            <path class="cls-5" d="M31.55,54.59c-6.74-1.57-13.64-4.67-20.65-3.03-.76.22-1.96.57-2.22,1.32-.09.26.24.62.63.86,1.25.76,2.76,1.03,4.2,1.29,5.97.8,12.13.91,18.04-.44h0ZM31.55,54.59c-5.86,1.7-12.1,1.81-18.13,1.02-1.75-.34-3.79-.55-5.11-1.9-1.08-1.56,1.28-2.5,2.44-2.76,7.15-1.65,14.11,1.62,20.8,3.63h0Z"/>
          </g>
        </g>
        <g>
          <path class="cls-3" d="M64.77,40.58c.57,0,.78.28.78.6,0,1.59-4,4.78-7.75,6.05-1.17,1.8-2.02,3.57-2.02,4.56,0,.53.35.99,1.24.99,2.83,0,6.12-2.9,9.34-7.01.07-.11.25,0,.11.14-2.72,3.5-6.3,7.04-9.41,7.04-1.56,0-1.84-1.03-1.84-1.7,0-6.09,7.78-10.69,9.55-10.69ZM57.98,46.99c3.89-1.38,7.39-4.49,7.39-5.8,0-.18-.11-.42-.53-.42-1.77,0-4.81,3.18-6.86,6.23Z"/>
          <g>
            <path class="cls-5" d="M64.77,40.58c1.39,0,.58,1.53.05,2.11-1.78,2.06-4.61,3.78-6.94,4.59-.63,1.17-3.57,5.53-.64,5.27,3.84-.58,6.56-4.22,8.85-6.96.13-.22.52-.26.68-.02.15.2.07.45-.07.58-1.43,1.81-3.3,3.9-5.33,5.37-1.61,1.32-6.35,3.13-6.3-.41.21-4.71,5.33-9.5,9.7-10.53h0ZM64.77,40.58c-2.46.49-4.52,2.25-6.29,3.94-1.71,1.79-3.07,4.11-3.08,6.6-.05.6.18,1.19.68,1.44,1.71.65,3.57-.5,4.97-1.49,1.99-1.49,3.66-3.4,5.2-5.38-.05.05-.06.18,0,.27.1.16.34.1.39,0l-.02.02c-2.49,2.91-5.26,6.55-9.35,7-3.56.08-.42-4.39.45-5.81,2.62-.95,5.2-2.38,7.08-4.5.53-.58,1.36-2.08-.03-2.09h0Z"/>
            <path class="cls-5" d="M57.98,46.99c2.25-1.04,4.34-2.39,6.06-4.16.43-.48.92-1,1.01-1.63,0-.11-.09-.13-.32-.11-1.37.22-2.41,1.32-3.43,2.21-1.19,1.13-2.27,2.39-3.32,3.68h0ZM57.98,46.99c1.6-2.52,3.63-5.74,6.7-6.53,1.21-.15,1.2,1,.62,1.78-1.77,2.38-4.53,3.92-7.32,4.75h0Z"/>
          </g>
        </g>
        <g>
          <path class="cls-3" d="M66.33,51.83c0-1.56,1.38-3.25,2.51-4.88,1.7-2.44,2.37-3.43,2.37-4.35,0-.6-.5-1.13-.88-1.66-.99,1.45-2.72,3.68-4.03,5.31-.07.07-.25.04-.14-.11,1.27-1.59,3.04-3.86,4.07-5.38-.11-.21-.21-.42-.21-.67,0-1.1.81-1.7,1.31-1.7.21,0,.35.11.35.32,0,.53-.85,1.56-1.24,2.09l.53.74c.46.64.74,1.17.74,1.88,0,.74-.21,1.84-2.3,4.78-.92,1.31-2.58,3.4-2.58,4.1,0,.25.14.5.57.5,2.09,0,5.24-3.18,8.28-7.01.07-.11.21,0,.14.11-2.79,3.54-6.09,7.08-8.42,7.08-.39,0-1.06-.21-1.06-1.13Z"/>
          <path class="cls-5" d="M66.33,51.83c.4-3.14,3.25-5.31,4.53-8.1.21-.46.38-.99.24-1.46-.16-.48-.52-.86-.84-1.28,0,0,.15,0,.15,0l-3.97,5.37c-.16.17-.48.15-.5-.15.03-.21.3-.47.41-.65,0,0,.52-.71.52-.71.66-.91,2.44-3.31,3.12-4.25,0,0-.02.28-.02.28-.61-1,0-2.62,1.3-2.78,1.69.18-.15,2.24-.59,2.88,0,0,0-.36,0-.36.62.86,1.46,1.82,1.34,2.99-.54,3.25-3.3,5.49-4.76,8.2-.17.37-.38.74.18.72,1.51-.12,2.75-1.26,3.88-2.22,1.53-1.39,2.95-3.01,4.25-4.58.14-.22.47.02.31.23-1.37,1.68-2.8,3.32-4.4,4.79-1.2,1.03-2.56,2.22-4.23,2.22-.58-.04-.97-.57-.94-1.13h0ZM66.33,51.83c-.02,1.43,1.6,1.22,2.5.75,2.87-1.54,4.91-4.25,6.91-6.75,0,0,0,0,0,0,0-.01,0,0,0,0,0,0,.04,0,.02,0h0c-1.82,2.16-5.7,7.61-8.78,7.12-.58-.24-.41-1.05-.19-1.4,1.05-1.91,2.45-3.45,3.5-5.24.51-.88,1.04-1.81,1.1-2.75.11-.95-.59-1.72-1.19-2.6-.08-.11-.08-.26,0-.36.42-.59.94-1.14,1.17-1.8.03-.09.01-.15.02-.13.02.02,0,0-.08,0-.77.11-1.3,1.24-.83,1.95.05.09.04.2-.02.28-1.14,1.45-3.07,4-4.15,5.31-.02-.12-.11-.16-.15-.09,0,0,4.1-5.24,4.1-5.24.03-.04.09-.05.13-.02.31.42.67.83.84,1.37.15.55-.06,1.08-.28,1.55-1.31,2.79-4.18,4.91-4.62,8.06h0Z"/>
        </g>
        <g>
          <path class="cls-3" d="M74.28,41.75c1.1-.35,2.55-.53,4.39-.64,5.91-9.2,10.15-13.8,12.31-13.8.53,0,.85.32.85.81,0,2.72-6.01,8.53-11.82,12.91,1.1-.04,2.34-.04,3.72-.04v.18c-1.52,0-2.76,0-3.86.04l-1.84,3.08c-12.77,21.69-16.88,24.17-21.02,24.17-.64,0-1.56-.21-2.16-.67l.11-.14c.53.35,1.17.64,2.05.64,3.93,0,7.25-3.93,19.96-24.45.53-.88,1.06-1.73,1.59-2.55-1.84.11-3.11.32-4.25.64l-.04-.18ZM80.23,40.69c5.1-4,11.43-9.87,11.43-12.56,0-.39-.25-.6-.64-.6-1.98,0-6.9,6.94-10.79,13.16Z"/>
          <g>
            <path class="cls-5" d="M74.28,41.75c1.36-.43,3.07-.62,4.35-.66,3.03-4.6,5.93-9.51,10.23-13.06.79-.66,3.04-1.71,3.17.11,0,.35-.16.89-.28,1.23-2.62,4.95-7.3,8.44-11.57,11.9,0,0-.18-.51-.18-.51,0,0,3.72-.04,3.72-.04.16,0,.29.13.29.28.02.22-.03.47-.29.48,0,0-3.85.04-3.85.04l.25-.15c-3.32,5.57-6.57,11.2-10.28,16.54-2.87,3.86-5.64,8.38-10.22,10.4-1.61.53-3.48.75-4.95-.29-.13-.09-.15-.27-.05-.4,0,0,.11-.14.11-.14h0c.09-.13.26-.15.38-.07,1.2.86,2.87.7,4.17.02,3.94-2.44,6.37-6.75,9.06-10.44,3.49-5.17,6.81-10.47,10.18-15.73-1.12.25-2.9.22-4.21.66,0,0-.03-.18-.04-.18h0ZM74.28,41.75l.04.18c1.33-.34,2.99-.73,4.28-.61-3.26,5.32-6.46,10.7-9.92,15.91-2.7,3.79-5.08,8.16-9.13,10.71-1.44.76-3.35.95-4.74-.04,0,0,.39-.07.39-.07,0,0-.11.14-.11.14,0,0-.05-.4-.05-.4,1.21.86,2.97.69,4.4.19,4.4-1.99,7.11-6.43,9.89-10.22,3.67-5.34,6.96-10.93,10.29-16.49.05-.09.15-.14.24-.14l3.87-.03-.29.29s0-.18,0-.18l.29.29-3.71.03c-.16,0-.29-.12-.29-.28,2.3-2.15,5.08-4.03,7.3-6.35,1-.91,6.25-6.42,4.08-7.17-3.88.34-10.09,10.33-12.4,13.61-1.47.13-2.99.17-4.42.61h0Z"/>
            <path class="cls-5" d="M80.23,40.69c3.88-3.55,8.3-6.9,10.86-11.56.22-.67.58-1.64-.53-1.15-2.17,1.28-3.61,3.56-5.19,5.49-1.79,2.35-3.46,4.78-5.15,7.22h0ZM80.23,40.69c1.34-2.26,8.66-15.11,11.47-13.25,1.91,3.03-9.03,11.54-11.47,13.25h0Z"/>
          </g>
        </g>
        <g>
          <path class="cls-3" d="M88.44,40.58c.57,0,.78.28.78.6,0,1.59-4,4.78-7.75,6.05-1.17,1.8-2.02,3.57-2.02,4.56,0,.53.35.99,1.24.99,2.83,0,6.12-2.9,9.34-7.01.07-.11.25,0,.11.14-2.72,3.5-6.3,7.04-9.41,7.04-1.56,0-1.84-1.03-1.84-1.7,0-6.09,7.78-10.69,9.55-10.69ZM81.64,46.99c3.89-1.38,7.39-4.49,7.39-5.8,0-.18-.11-.42-.53-.42-1.77,0-4.81,3.18-6.86,6.23Z"/>
          <g>
            <path class="cls-5" d="M88.44,40.58c1.39,0,.58,1.53.05,2.11-1.78,2.06-4.61,3.78-6.94,4.59-.63,1.17-3.57,5.53-.64,5.27,3.84-.58,6.56-4.22,8.85-6.96.13-.22.52-.26.68-.02.15.2.07.45-.07.58-1.43,1.81-3.3,3.9-5.33,5.37-1.61,1.32-6.35,3.13-6.3-.41.21-4.71,5.33-9.5,9.7-10.53h0ZM88.44,40.58c-2.46.49-4.52,2.25-6.29,3.94-1.71,1.79-3.07,4.11-3.08,6.6-.05.6.18,1.19.68,1.44,1.71.65,3.57-.5,4.97-1.49,1.99-1.49,3.66-3.4,5.2-5.38-.05.05-.06.18,0,.27.1.16.34.1.39,0l-.02.02c-2.49,2.91-5.26,6.55-9.35,7-3.56.08-.42-4.39.45-5.81,2.62-.95,5.2-2.38,7.08-4.5.53-.58,1.36-2.08-.03-2.09h0Z"/>
            <path class="cls-5" d="M81.64,46.99c2.25-1.04,4.34-2.39,6.06-4.16.43-.48.92-1,1.01-1.63,0-.11-.09-.13-.32-.11-1.37.22-2.41,1.32-3.43,2.21-1.19,1.13-2.27,2.39-3.32,3.68h0ZM81.64,46.99c1.6-2.52,3.63-5.74,6.7-6.53,1.21-.15,1.2,1,.62,1.78-1.77,2.38-4.53,3.92-7.32,4.75h0Z"/>
          </g>
        </g>
        <g>
          <path class="cls-3" d="M96.71,40.76c-3.15,0-9.27,8.6-9.27,10.97,0,.74.5,1.06,1.31,1.06,2.8,0,6.51-2.9,9.73-7.01.07-.11.25,0,.11.14-2.72,3.5-6.72,7.04-9.84,7.04-1.59,0-1.8-.96-1.8-1.77,0-2.97,2.05-6.01,4.71-8.07,1.84-1.42,3.68-2.55,5.06-2.55.78,0,1.06.5,1.06,1.13,0,.71-.42,1.63-1.2,1.63-.35,0-.53-.21-.53-.5,0-.92,1.56-.99,1.56-1.24-.04-.5-.21-.85-.88-.85Z"/>
          <path class="cls-5" d="M96.71,40.76c-3.54.57-8.27,7.33-9.1,10.66-.34,1.49,1.53,1.31,2.46.99,3.42-1.17,5.94-4.07,8.18-6.81.27-.41,1.01.06.55.54-2.46,2.98-6.18,7.31-10.62,7.07-1.58-.19-1.63-1.96-1.37-3.19.79-4,4.14-6.91,7.53-8.77.7-.35,1.45-.66,2.25-.71,1.51-.18,1.51,1.97.55,2.64-.3.22-.86.3-1.07-.1-.29-1,.99-1.07,1.52-1.47.02-.5-.37-.9-.88-.85h0ZM96.71,40.76c.51-.05.91.34.89.85-.26.29-.73.28-1.05.51-.35.17-.6.58-.45.95.56.74,1.51-.23,1.58-.9.47-2.3-2.12-1.49-3.28-.79-2.68,1.57-5.17,3.7-6.45,6.53-3.17,7.79,4.15,4.44,7.24,1.25,1.16-1.05,2.2-2.23,3.18-3.45-.04.05-.05.15,0,.24.09.14.3.09.34,0-1.53,1.92-3.24,3.72-5.26,5.15-1.18,1.01-6.51,3.49-6.11.28.9-3.26,5.86-10.14,9.35-10.62h0Z"/>
        </g>
        <g>
          <path class="cls-3" d="M101.95,40.94l1.24-1.95h-2.72v-.18h2.83l2.09-3.29c.32,0,1.06-.04,1.34-.07l-2.12,3.36h2.65v.18h-2.76l-6.23,9.8c-.85,1.34-2.02,2.79-2.02,3.5,0,.35.21.5.5.5,2.23,0,5.27-3.18,8.31-7.01.07-.11.21,0,.14.11-2.79,3.54-6.05,7.08-8.49,7.08-.67,0-.96-.46-.96-1.06,0-1.06.85-2.55,1.7-3.89l2.23-3.5-1.38,1.73c-.07.07-.25.04-.14-.11,1.27-1.63,2.62-3.4,3.79-5.2Z"/>
          <path class="cls-5" d="M101.95,40.94l1.23-1.95s0,.02,0,.02h-2.72s-.02,0-.02-.01v-.18s.01-.02.02-.02h2.83c-.13.09,2.06-3.31,2.03-3.3.01-.02.03-.03.05-.03l1.33-.09c.06,0,.11.06.08.12,0,0-2.08,3.39-2.08,3.39l-.11-.19,2.65-.03c.17,0,.17.21.16.34,0,.09-.07.16-.16.16l-2.76.03.16-.09-3.63,5.87c-1.24,1.93-2.42,3.92-3.72,5.82-.31.54-.79,1.09-.72,1.64,1.32.16,2.58-.94,3.62-1.78,1.71-1.49,3.19-3.25,4.63-5.03.23-.36.89,0,.58.45-1.69,2.08-3.45,4.16-5.61,5.78-.91.65-1.97,1.27-3.14,1.27-2.09-.34-.51-3.08.09-4.13.72-1.04,2.34-3.9,2.96-4.45,0,0-1.39,1.73-1.39,1.73-.06.06-.19.08-.23-.04.03-.16.28-.4.36-.54,0,0,.5-.68.5-.68.63-.86,2.34-3.18,2.99-4.07h0ZM101.95,40.94c-1.02,1.42-2.68,3.72-3.69,5.12-.08.1-.17.25.02.16,0,0,1.37-1.74,1.37-1.74.03-.04.1,0,.07.05-.94,1.51-1.91,3.01-2.8,4.55-.49,1.03-1.51,2.49-.76,3.56,2.81,1.06,7.19-4.93,8.83-6.92-.16.22.17.42.31.22-2.23,2.62-4.33,5.77-7.7,7.05-2.39.62-1.7-1.36-.8-2.54,1.32-1.89,2.51-3.84,3.77-5.78l3.77-5.78c.04-.06.1-.09.16-.09l2.76.03-.16.16c0-.27-.02-.17.16-.02,0,0-2.65-.03-2.65-.03-.07,0-.13-.05-.13-.12,0-.02,0-.05.02-.07l2.16-3.34.08.12s-1.35.06-1.35.06l.05-.03s-2.09,3.31-2.14,3.29c.02,0-2.94.02-2.81-.04,0,0,0,.18,0,.18l-.02-.02h2.72c.05.02-1.25,1.95-1.24,1.97h0Z"/>
        </g>
        <g>
          <path class="cls-3" d="M102.3,52.93c-1.17-.14-2.19-.85-2.19-2.26,0-1.06.64-1.49,1.1-1.49.25,0,.42.11.42.35,0,.39-.74,1.1-1.27,1.56.07.85.85,1.66,2.23,1.66.85,0,1.98-.74,3.11-1.91,2.02-2.05,3.93-5.41,3.93-8.03,0-.85-.14-1.49-.42-2.09-.78,1.06-2.69,3.47-4.28,5.48-.11.14-.28.07-.18-.07,1.06-1.31,3.33-4.21,4.39-5.59-.21-.46-.21-.67-.21-.99,0-.53.35-1.17.92-1.17.46,0,.5.28.5.46,0,.42-.46,1.1-1.03,1.73.5,1.1.71,2.3.71,3.5,0,3.93-2.37,7.86-5.98,8.7,2.72-.21,5.27-1.66,7.61-4.32.78-.88,1.52-1.77,2.26-2.69.07-.11.21,0,.14.11-.67.81-1.45,1.77-2.3,2.72-2.44,2.76-5.17,4.35-8.24,4.35-.21,0-.88,0-1.2-.04Z"/>
          <path class="cls-5" d="M102.3,52.93c-.67-.08-1.36-.36-1.78-.92-.58-.78-.67-2.23.28-2.76.28-.16.85-.17.85.27-.14.65-.87,1.23-1.26,1.56.19,1.62,2.36,2.04,3.53,1.15,3.15-2.24,6.69-7.5,5.1-11.42,0,0,.36.03.36.03-1.01,1.33-2.83,3.71-3.83,5.02-.1.13-.34.43-.44.56-.17.18-.53.24-.66-.12-.03-.27.06-.3.15-.44.08-.11.33-.42.42-.53,1-1.29,2.86-3.67,3.87-4.98,0,0-.04.32-.04.32-.35-.7-.37-1.69.23-2.29,1.07-.88,2.07.11,1.33,1.25-.25.44-.55.8-.86,1.16l.05-.34c2.02,4.66-.33,11.28-5.51,12.55,0,0-.07-.43-.07-.43,4.27-.2,7.3-3.77,9.82-6.84.1-.17.42,0,.27.21-3.06,3.77-6.47,7.61-11.81,6.99h0ZM102.3,52.93c5.33.56,8.71-3.27,11.69-7.09,0,0,0,0,0,0,0-.04,0-.03-.01,0-2.51,3.21-5.54,6.87-9.92,7.17-.27.03-.33-.38-.07-.43,4.79-1.3,6.94-7.53,5.03-11.86-.05-.12-.03-.25.05-.34.37-.45.86-.98.94-1.53-.03-.16.04-.07-.11-.13-.35-.07-.67.45-.66.84-.01.32.03.56.18.86.05.11.03.23-.04.32,0,0-2.24,2.83-2.24,2.83-.52.66-1.45,1.83-1.96,2.47-.04.06-.17.21-.21.27,0,0,.04-.01.02-.14-.07-.18-.22-.18-.28-.13,0,0,.12-.15.12-.15.5-.64,1.45-1.82,1.96-2.47,0,0,2.25-2.82,2.26-2.83.07-.09.2-.1.29-.03.77,1.44.5,3.18.03,4.62-.87,2.6-4.39,8.29-7.59,7.51-.74-.18-1.4-.81-1.46-1.6.23-.25.53-.47.76-.73.59-.53.86-1.44-.25-1.07-.93.51-.85,1.94-.29,2.71.41.55,1.09.84,1.77.93h0Z"/>
        </g>
        <g>
          <path class="cls-3" d="M117.38,40.94l1.24-1.95h-2.72v-.18h2.83l2.09-3.29c.32,0,1.06-.04,1.34-.07l-2.12,3.36h2.65v.18h-2.76l-6.23,9.8c-.85,1.34-2.02,2.79-2.02,3.5,0,.35.21.5.5.5,2.23,0,5.27-3.18,8.31-7.01.07-.11.21,0,.14.11-2.79,3.54-6.05,7.08-8.49,7.08-.67,0-.96-.46-.96-1.06,0-1.06.85-2.55,1.7-3.89l2.23-3.5-1.38,1.73c-.07.07-.25.04-.14-.11,1.27-1.63,2.62-3.4,3.79-5.2Z"/>
          <path class="cls-5" d="M117.38,40.94l1.23-1.95v.02s-2.72.01-2.72.01c-.01,0-.02-.01-.02-.02v-.18s.01-.02.02-.02c0,0,2.83-.01,2.83-.01-.13.11,2.06-3.3,2.03-3.29.01-.02.03-.03.05-.03l1.33-.09c.06,0,.11.06.08.12,0,0-2.08,3.39-2.08,3.39l-.11-.19,2.65-.03c.17,0,.17.21.16.34,0,.09-.07.16-.16.16l-2.76.03.16-.09c-2.16,3.45-5.11,8.35-7.35,11.69-.31.54-.79,1.09-.72,1.64,1.32.16,2.58-.94,3.62-1.78,1.68-1.46,3.25-3.34,4.62-5.01.08-.16.4-.23.53-.09.17.11.17.39.07.51-1.12,1.4-2.3,2.77-3.58,4.03-1.46,1.35-3.08,2.95-5.19,3.04-.88.02-1.17-.97-.99-1.65.19-.91.64-1.7,1.08-2.47.72-1.03,2.35-3.91,2.96-4.45,0,0-1.39,1.73-1.39,1.73-.06.06-.19.08-.23-.04.03-.16.28-.4.36-.54,0,0,.5-.68.5-.68.63-.86,2.34-3.18,2.99-4.07h0ZM117.38,40.94c-.65.91-2.33,3.22-2.95,4.1-.15.22-.59.81-.74,1.03-.08.1-.17.25.02.16,0,0,1.37-1.74,1.37-1.74-.92,2.14-3.18,4.48-3.73,7.02-.19,1.03.35,1.53,1.38,1.23,1.67-.45,3.01-1.74,4.24-2.97,1.21-1.24,2.41-2.73,3.43-4.03-.04.04-.04.19.04.24.07.08.27.02.28-.04,0,0-.01.02-.01.02-2.23,2.61-4.32,5.75-7.69,7.03-2.39.62-1.7-1.36-.8-2.54,1.32-1.89,2.51-3.84,3.77-5.78l3.77-5.78c.04-.06.1-.09.16-.09l2.76.03-.16.16c0-.27-.02-.17.16-.02,0,0-2.65-.03-2.65-.03-.07,0-.13-.05-.13-.12,0-.02,0-.05.02-.07l2.16-3.34.08.12-1.35.06.05-.03s-2.09,3.31-2.14,3.29c.02,0-2.94.02-2.81-.04,0,0,0,.18,0,.18l-.02-.02h2.72c.05.02-1.25,1.95-1.24,1.97h0Z"/>
        </g>
        <g>
          <path class="cls-3" d="M123.96,40.9c.25,0,1.03-.04,1.38-.07l-2.12,3.33c-2.02,3.33-4.74,6.94-4.74,8.03,0,.35.18.6.88.6,2.72,0,6.37-5.02,8.46-7.89l2.55-4c.42,0,1.13-.04,1.38-.07l-5.06,7.96c-.88,1.38-2.02,2.94-2.02,3.5,0,.35.21.5.53.5,2.16,0,5.24-3.18,8.28-7.01.07-.11.21,0,.14.11-2.8,3.54-6.09,7.08-8.46,7.08-.71,0-.99-.46-.99-1.06,0-1.1.85-2.55,1.7-3.89l.81-1.31c-2.26,2.97-5.02,6.26-7.4,6.26-.85,0-1.38-.39-1.38-1.2,0-1.98,2.3-4.81,3.79-7.25l-1.38,1.73c-.07.07-.25.04-.14-.11,1.27-1.63,2.05-2.62,3.33-4.49l.46-.74Z"/>
          <path class="cls-5" d="M123.96,40.9s1.43-.13,1.39-.06c-1.22,1.95-2.89,4.7-4.11,6.61-.85,1.37-1.8,2.69-2.44,4.17-.11.28-.21.6-.11.79.08.17.43.22.72.2l.45-.06.44-.14c3.41-1.74,5.59-5.32,7.76-8.38,0,0,2.07-3.29,2.07-3.29.05-.08.13-.12.22-.13.02,0,1.34-.07,1.36-.07,0,0,.02,0,.02,0,.22-.02.38.25.25.43,0,0-3.4,5.37-3.4,5.37l-1.7,2.69c-.63,1.07-1.55,2.11-1.91,3.26.03.18,0,.14.2.18,1.5-.09,2.74-1.23,3.84-2.21,1.52-1.43,2.89-3.04,4.22-4.68l-.02.02c.04-.07.13-.15.25-.18.36-.09.62.39.41.63-.98,1.24-2,2.45-3.1,3.59-1.52,1.48-3.22,3.32-5.47,3.58-.8.15-1.49-.57-1.43-1.3.14-2.06,1.62-3.71,2.57-5.38,0,0,.44.3.44.3-1.49,1.9-6.48,8.51-9.03,5.58-.22-.47-.14-.94-.06-1.37.67-2.51,2.49-4.46,3.8-6.63,0,0,.17.12.17.12l-1.4,1.72c-.08.08-.25.13-.31-.07.01-.16.29-.42.38-.57,0,0,.51-.67.51-.67.92-1.25,2.19-2.77,3.01-4.08h0ZM123.96,40.9c-.46.82-1.37,2.01-1.92,2.78-.48.69-1.37,1.86-1.82,2.53-.03-.03.03,0,.04-.03h0s1.36-1.74,1.36-1.74c.08-.1.24.01.17.12-.68,1.43-5.84,7.73-2.68,8.19.79.06,1.56-.31,2.24-.74,2.07-1.42,3.6-3.49,5.13-5.47.09-.12.26-.14.37-.05.11.08.14.23.07.35-.79,1.35-1.74,2.63-2.25,4.04-.46,1.26-.19,2.11,1.14,1.7,3.24-1.2,5.39-4.32,7.57-6.88-.2.32.24.45.35.28-1.33,1.66-2.69,3.3-4.27,4.76-1.21,1.06-2.57,2.29-4.3,2.36-.41.03-.85-.38-.8-.8.31-1.41,1.34-2.4,2.02-3.59,1.09-1.71,4-6.27,5.13-8.03,0,0,.28.43.28.43l-1.42.07.24-.13c-1.4,2.18-2.77,4.41-4.41,6.43-1.66,2-3.29,4.2-5.76,5.28-.35.12-.61.17-1.01.2-.37,0-.81-.01-1.03-.39-.19-.42,0-.77.1-1.08.68-1.49,1.68-2.8,2.57-4.16,1.26-1.87,3.01-4.6,4.27-6.5.1.05-1.38.07-1.37.08h0Z"/>
        </g>
        <g>
          <path class="cls-3" d="M142.07,41.75c0,.25-.04.53-.14.81l10.19-16.03c.32,0,1.06-.04,1.34-.07l-14.15,22.33c-.85,1.34-2.02,2.9-2.02,3.5,0,.32.21.5.5.5,2.23,0,5.27-3.18,8.32-7.01.07-.11.21,0,.14.11-2.8,3.54-6.05,7.08-8.49,7.08-.67,0-.96-.46-.96-1.06,0-1.06.85-2.55,1.7-3.89l.07-.14c-2.05,2.58-4.53,5.09-6.44,5.09-.88,0-1.06-.67-1.06-1.27,0-1.63,1.1-4.14,2.26-5.77,1.27-1.8,5.45-5.34,7.57-5.34.78,0,1.17.46,1.17,1.17ZM139.66,46.14l1.84-2.9c.21-.5.39-1.06.39-1.52,0-.53-.28-.96-1.03-.96-3.11,0-9.38,9.41-9.38,11.46,0,.39.25.57.64.57,2.37,0,5.91-4.32,7.54-6.65Z"/>
          <g>
            <path class="cls-5" d="M142.07,41.75c0,.27-.04.57-.14.81,0,0,10.11-16.08,10.11-16.08.02-.03.05-.04.08-.04,0,0,1.33-.08,1.34-.08.08,0,.15.09.1.17-2.1,3.37-12.13,19.52-14.03,22.49-.61,1.05-1.58,2.15-1.92,3.27,0,.13.03.15.11.18.99,0,1.9-.58,2.73-1.18,2.05-1.57,3.83-3.74,5.41-5.66.08-.17.41-.24.56-.09.17.12.18.4.08.53-.9,1.13-1.83,2.25-2.83,3.31-1.51,1.53-3.14,3.25-5.32,3.77-.91.22-1.78-.15-1.75-1.21.09-1.58,1.12-2.88,1.83-4.13,0,0,.28.18.28.18-1.12,1.44-5.9,6.96-7.59,4.45-.38-1.45.34-2.94.88-4.25.5-1.05,1.08-2.08,1.86-2.95,1-1.29,7.72-7.13,8.22-3.48h0ZM142.07,41.75c-.53-3.64-7.16,2.23-8.17,3.52-1.44,1.76-2.55,3.98-2.75,6.26-.04.55.12,1.21.69,1.31.54.08,1.11-.09,1.62-.34,2.04-1.09,3.54-2.97,4.98-4.74.18-.17.43.02.21.32-.69,1.18-1.57,2.46-1.64,3.83-.01.78.58.93,1.25.76,3.34-1.07,5.6-4.46,7.75-6.96-.15.24.22.43.35.22-1.1,1.4-2.25,2.77-3.5,4.05-1.37,1.32-2.84,2.84-4.85,3.09-.5.13-1.09-.29-1.02-.82.35-1.44,1.34-2.36,2.04-3.58,1.83-2.9,12.27-19.05,14.35-22.28,0,0,.1.17.1.17l-1.36.06.08-.04-10.27,15.98c.08-.25.15-.54.14-.81h0Z"/>
            <path class="cls-5" d="M139.66,46.14s1.82-2.94,1.8-2.92c.52-1.13.67-2.78-1.1-2.25-3.28,1.61-5.24,5.16-7.22,8.11-.54.97-1.3,2.16-1.4,3.22-.04.38.78.29,1.29.1,2.82-1.24,4.8-3.85,6.63-6.27h0ZM139.66,46.14c-1.43,2.03-2.98,4-4.88,5.61-.75.58-1.59,1.17-2.58,1.25-.38.08-.93-.19-.95-.63.02-1.42.77-2.42,1.36-3.6,1.95-3.11,4.16-6.59,7.68-8.05,1.95-.46,1.88,1.26,1.24,2.54,0,0-1.87,2.88-1.87,2.88h0Z"/>
          </g>
        </g>
        <g>
          <path class="cls-3" d="M143.38,51.9c0-1.1.85-2.55,1.7-3.89l2.16-3.43c-.5.67-.99,1.27-1.31,1.66-.07.07-.25.04-.14-.11,1.06-1.34,2.19-2.83,3.22-4.32l.57-.92c.42,0,1.13-.04,1.38-.07l-5.06,7.96c-.88,1.38-2.02,2.94-2.02,3.5,0,.35.21.5.53.5,2.16,0,5.24-3.18,8.28-7.01.07-.11.21,0,.14.11-2.79,3.54-6.09,7.08-8.46,7.08-.71,0-.99-.46-.99-1.06ZM153.99,35.24c0,.6-.57,1.42-1.34,1.42-.46,0-.64-.28-.64-.64,0-.6.57-1.42,1.31-1.42.5,0,.67.28.67.64Z"/>
          <g>
            <path class="cls-5" d="M143.38,51.9c.07-1.41.92-2.63,1.61-3.81,0,0,2.19-3.55,2.19-3.55l.1.07-1.28,1.69c-.09.08-.27.15-.35-.08.01-.18.27-.43.37-.6.31-.44,1.16-1.6,1.48-2.06,0,0,.99-1.37.99-1.37.41-.42.63-1.22,1.07-1.52.02,0,1.35-.09,1.37-.09.19-.03.34.2.23.36-1.11,1.8-3.95,6.36-5.04,8.09-.63,1.08-1.57,2.1-1.93,3.25.02.18,0,.16.2.19.45,0,.93-.15,1.38-.37,2.73-1.49,4.81-4.11,6.8-6.42.16-.26.56,0,.38.26-1.37,1.67-2.81,3.3-4.41,4.76-1.19,1.03-2.55,2.19-4.2,2.25-.59.03-1-.51-.95-1.07h0ZM143.38,51.9c-.03.56.37,1.09.95,1.05,1.64-.09,2.97-1.25,4.14-2.29,1.58-1.47,2.93-3.16,4.24-4.86-.05.07.06.1.09.06-2,2.47-3.94,5.18-6.79,6.77-.68.36-2.38.94-2.45-.34.31-1.4,1.32-2.42,2-3.6,1.09-1.7,4.05-6.24,5.19-7.99,0,0,.23.36.23.36l-1.41.05.18-.1c-.99,1.6-2.43,3.25-3.55,4.76-.16.2-.42.57-.35.41,0,0,1.33-1.64,1.33-1.64.05-.06.14,0,.1.07,0,0-2.25,3.52-2.25,3.52-.71,1.17-1.57,2.37-1.66,3.78h0Z"/>
            <path class="cls-5" d="M153.99,35.24c-.03.52-.26,1.06-.73,1.42-.6.47-1.6.25-1.57-.65.03-.97,1.03-1.76,1.91-1.43.28.09.42.39.4.65h0ZM153.99,35.24c.02-.65-.72-.69-1.1-.36-.37.31-.8,1.18-.4,1.48.66.28,1.49-.37,1.5-1.12h0Z"/>
          </g>
        </g>
        <g>
          <path class="cls-3" d="M159.86,40.58c.88,0,1.27.53,1.27,1.31,0,3.33-5.2,11.07-8.99,11.07-1.13,0-1.63-.71-1.63-1.91,0-1.52.81-3.5,1.98-5.13,1.06-1.49,5.27-5.34,7.36-5.34ZM151.09,51.87c0,.6.42.92,1.1.92,3.11,0,7.47-5.77,8.49-9.41-.46-.21-.67-.64-.67-1.06,0-.46.25-.92.81-1.06-.18-.39-.5-.5-.92-.5-2.65,0-8.81,8.46-8.81,11.11Z"/>
          <g>
            <path class="cls-5" d="M159.86,40.58c1.92,0,1.23,2.39.83,3.54-1.32,3.36-3.4,6.75-6.6,8.6-3.15,1.64-4.57-.48-3.55-3.49.89-2.88,3.1-5.02,5.46-6.75,1.16-.83,2.4-1.78,3.87-1.9h0ZM159.86,40.58c-1.46.15-2.67,1.12-3.81,1.98-2.22,1.79-4.25,4.02-4.98,6.83-.47,1.63-.5,3.75,1.79,3.16,3.64-1.34,6.17-5.05,7.73-8.46.42-1.12,1.16-3.47-.74-3.5h0Z"/>
            <path class="cls-5" d="M151.09,51.87c-.03.7.73,1.01,1.33.87,3.82-.76,6.82-6.01,7.97-9.45,0,0,.17.36.17.36-1.21-.47-1.12-2.46.19-2.71,0,0-.21.44-.21.44-.59-.94-2.25.39-2.91.9-2.78,2.57-5.71,5.79-6.53,9.58h0ZM151.09,51.87c.15-2.73,6.4-12.63,9.57-11.25.31.17.72.69.29.92-.36.09-.6.35-.62.73-.02.35.16.68.48.83.14.06.21.22.17.36-1.19,3.53-4.71,8.6-8.55,9.32-.6.13-1.38-.21-1.33-.92h0Z"/>
          </g>
        </g>
      </g>
    </g>
  </g>
</svg>