<?xml version="1.0" encoding="UTF-8"?>
<svg id="_레이어_2" data-name="레이어_2" xmlns="http://www.w3.org/2000/svg" viewBox="0 0 143.29 47.19">
  <defs>
    <style>
      .cls-1 {
        fill: #fff;
      }

      .cls-2 {
        fill: #425b72;
      }

      .cls-3 {
        fill: none;
        stroke: #fff;
        stroke-miterlimit: 10;
        stroke-width: 1.31px;
      }
    </style>
  </defs>
  <g id="_레이어_1-2" data-name="레이어_1">
    <g>
      <rect class="cls-2" x="0" y="0" width="143.29" height="47.19" rx="18.06" ry="18.06"/>
      <path class="cls-1" d="M14.39,16.62c4.86.88,5.52,1.58,6.34,6.71.59-3.62,1.09-5.04,3.05-5.86.49-.21,1.07-.37,1.77-.53l1.49-.03c-.83,5.13-1.5,5.83-6.36,6.69,4.85.88,5.52,1.58,6.33,6.7l-1.45-.03c-3.49-.79-4.1-1.87-4.82-6.41-.83,5.13-1.5,5.83-6.36,6.69,4.86.88,5.52,1.58,6.34,6.71.59-3.62,1.09-5.04,3.05-5.86.49-.21,1.07-.37,1.77-.53l13.16-.3-11.68-.27c.59-3.61,1.09-5.03,3.04-5.85.49-.21,1.07-.37,1.77-.53l13.16-.3-13.13-.3c-3.49-.79-4.1-1.87-4.82-6.41l11.66-.27-13.13-.3c-3.49-.79-4.1-1.87-4.82-6.41-.83,5.13-1.5,5.83-6.36,6.69Z"/>
      <line class="cls-3" x1="50.64" y1="5.23" x2="50.64" y2="41.96"/>
      <g>
        <path class="cls-1" d="M60.17,16.92l.3.3s-.14.19-.41.8c-.25.6.22.8.8,1.26s.58,1.18.58,1.18l.91-1.62c1.1.66,3.74.88,3.74.88,0,0-.36.33-.69,1.46-.33,1.15.16,3.24.16,3.24-1.1,1.07-1.76,2.17-1.76,2.17-1.54-.44-2.64-.55-2.64-.55l-.49,14.12-.6-.27-.88-14.01c-1.37-.14-2.2.72-2.2.72,0,0,.27-1.68,1.29-3.05l.8.08c0-.99-.03-1.98-.6-2.39-1.04-.77-.82-1.21-.82-1.21,1.29-1.29,2.53-3.11,2.53-3.11ZM61.35,21.59l-.05,2.25,1.7.25v-2.17s-.82-.6-1.65-.33Z"/>
        <path class="cls-1" d="M65.39,20.88c1.26-.22,3.1-2.03,3.1-2.03,1.98.19,2.8.8,2.91.85l.44-.36.33.41c-1.95,1.57-3.3,2.99-3.98,3.79.47.3,2.01,1.54,3.43.19l.22.33c-1.15,1.26-3.08,2.53-3.08,2.53-1.92-.91-3.96-1.29-3.96-1.29.66-.66,1.04-1.43,1.04-1.43,0-2.23-.47-2.99-.47-2.99ZM69.24,21.7c-.52-.72-1.15-.8-1.15-.8v1.9l1.15-1.1Z"/>
        <path class="cls-1" d="M72.86,18.84l1.95,1.1c.41-.55.71-1.1.71-1.1,1.73.22,2.58.88,2.58.88,0,0-.8.96-1.04,1.59-.27.71-.25,2.14-.25,2.14l-.41.16c.08-2.53-1.79-2.42-1.79-2.42v2.64c.33.52,1.48.58,1.48.58-.63,1.07-2.03,2.17-2.03,2.17-1.35-.82-3.02-1.32-3.02-1.32.85-.55,1.35-1.26,1.35-1.26,0,0,.11-1.65.03-2.17-.11-.69-1.7-.96-1.7-.96,0,0,.77-.96,2.14-2.03Z"/>
        <path class="cls-1" d="M77.86,18.79h.05c-.25-3.24-.49-5.96-.74-7.2,2.45-1.29,3.98-3.41,3.98-3.41,2.09.19,3.16.85,3.16.85,0,0-.82.99-1.04,1.62-.27.72-.33,3.11-.33,3.11l-.41.16c0-2.99-.88-3.3-2.23-3.38l-.19,8.35h.03c2.39,0,2.53-.49,2.53-.49l.33.27c-.58,1.32-1.87,2.42-1.87,2.42,0,0-.55-.06-1.07-.14l-.47,18.85-.6-.28s-.41-10.5-.93-18.79c-1.13-.03-2.2.03-2.2.03.49-.82,2.01-1.98,2.01-1.98Z"/>
        <path class="cls-1" d="M81.35,20.88c1.26-.22,3.1-2.03,3.1-2.03,1.98.19,2.8.8,2.91.85l.44-.36.33.41c-1.95,1.57-3.3,2.99-3.98,3.79.47.3,2.01,1.54,3.43.19l.22.33c-1.15,1.26-3.08,2.53-3.08,2.53-1.92-.91-3.96-1.29-3.96-1.29.66-.66,1.04-1.43,1.04-1.43,0-2.23-.47-2.99-.47-2.99ZM85.2,21.7c-.52-.72-1.15-.8-1.15-.8v1.9l1.15-1.1Z"/>
        <path class="cls-1" d="M87.26,20.88c1.26-.22,3.1-2.03,3.1-2.03,2.09.22,3.46.88,3.46.88,0,0-.82.96-1.04,1.59-.27.71-.25,2.14-.25,2.14l-.41.16c.06-2.53-2.14-2.42-2.14-2.42v2.25s2.34,1.81,3.98.27l.22.33c-1.18,1.26-3.54,2.53-3.54,2.53-1.9-.91-3.96-1.29-3.96-1.29.69-.66,1.04-1.43,1.04-1.43,0-2.23-.47-2.99-.47-2.99Z"/>
        <path class="cls-1" d="M96.85,16.18l.36.16c-.3.63-.44,1.73-.52,2.91,2.28-.03,2.42-.5,2.42-.5l.33.28c-.58,1.32-1.84,2.47-1.84,2.47,0,0-.22-.11-.96-.22,0,1.43.05,2.56.05,2.56.55.52,2.12.58,2.12.58-.6,1.07-2.14,2.17-2.14,2.17-1.37-.82-3.6-1.32-3.6-1.32.85-.55,1.37-1.26,1.37-1.26,0,0,0-1.46-.03-2.89-1.04-.03-2.01,0-2.01,0,.88-.6,1.7-1.59,1.92-1.9,0-.22-.03-.41-.05-.55.91-.69,2.25-1.81,2.58-2.5Z"/>
        <path class="cls-1" d="M99.65,18.84l2.5.88s-.55.8-.74,1.48c-.14.69,0,2.47,0,2.47,0,0,.69.47,1.87.55.03-.63.08-1.98.03-2.39-.11-.69-1.46-.96-1.46-.96,0,0,.8-.96,2.17-2.03,0,0,.93.5,1.65,1.35,0,0,2.25-.91,3.27-1.73l.27.38s-1.02.69-.38,1.54c.49.69,1.84.71,1.29,2.58-.52,1.79-4.37,3.63-4.37,3.63-.88-.72-1.95-1.04-2.72-1.18l-1.35,1.18c-1.92-.3-3.85-1.32-3.85-1.32.85-.55,1.35-1.26,1.35-1.26,0,0,.11-1.65.03-2.17-.11-.69-1.7-.96-1.7-.96,0,0,.77-.96,2.14-2.03ZM105.56,21.56c-.14.8-.03,2.12-.03,2.12,0,0,1.15.6,2.42.71.49-1.02-.47-1.29-1.1-2.2-.77-1.15-.03-1.92-.03-1.92,0,0-1.13.38-1.26,1.29Z"/>
        <path class="cls-1" d="M113.09,18.84l4.78.88s-.77.8-.96,1.48c-.22.77,0,2.69,0,2.69.25.47,1.24.52,1.24.52-1.13,1.81-2.36,2.17-2.36,2.17-.8-.47-1.1-.85-1.57-1.1l-1.24,1.1c-1.92-.3-3.85-1.32-3.85-1.32.85-.55,1.37-1.26,1.37-1.26,0,0-.05-2.55-.52-3.13,0,0,1.87-.66,3.1-2.03ZM112.79,21.21c-.14.91-.05,2.47-.05,2.47,0,0,.47.55,1.87.55v-2.61c-.82-.41-1.81-.41-1.81-.41Z"/>
        <path class="cls-1" d="M118.91,18.84s1.04.55,1.95,1.35c0,0,2.25-.91,3.27-1.73l.28.38s-.99.69-.38,1.54c.49.69,1.87.71,1.29,2.58-.52,1.79-4.37,3.63-4.37,3.63-1.65-1.29-3.82-1.32-3.82-1.32.52-.69,1.35-1.26,1.35-1.26,0,0,.11-1.65.03-2.17-.11-.69-1.7-.96-1.7-.96,0,0,.74-.96,2.12-2.03ZM120.76,21.56c-.14.8-.03,2.12-.03,2.12,0,0,1.15.6,2.45.71.47-1.02-.49-1.29-1.1-2.2-.77-1.15-.05-1.92-.05-1.92,0,0-1.13.38-1.26,1.29Z"/>
        <path class="cls-1" d="M124.9,20.88c1.26-.22,3.1-2.03,3.1-2.03,1.98.19,2.8.8,2.91.85l.44-.36.33.41c-1.95,1.57-3.3,2.99-3.98,3.79.47.3,2.01,1.54,3.43.19l.22.33c-1.15,1.26-3.08,2.53-3.08,2.53-1.92-.91-3.96-1.29-3.96-1.29.66-.66,1.04-1.43,1.04-1.43,0-2.23-.47-2.99-.47-2.99ZM128.75,21.7c-.52-.72-1.15-.8-1.15-.8v1.9l1.15-1.1Z"/>
      </g>
      <path class="cls-3" d="M23.59,41.96c-10.13,0-18.37-8.24-18.37-18.37S13.47,5.23,23.59,5.23h96.1c10.13,0,18.37,8.24,18.37,18.37s-8.24,18.37-18.37,18.37H23.59Z"/>
    </g>
  </g>
</svg>