<?xml version="1.0" encoding="UTF-8"?>
<svg id="_레이어_2" data-name="레이어_2" xmlns="http://www.w3.org/2000/svg" viewBox="0 0 156.49 67.35">
  <defs>
    <style>
      .cls-1 {
        fill: #3c3a3a;
      }

      .cls-2 {
        fill: #f08719;
      }
    </style>
  </defs>
  <g id="_레이어_1-2" data-name="레이어_1">
    <g>
      <rect class="cls-2" width="156.49" height="67.35" rx="8.26" ry="8.26"/>
      <g>
        <path class="cls-1" d="M42,9.36c-3.95,0-7.16,3.21-7.16,7.16s3.21,7.16,7.16,7.16,7.16-3.21,7.16-7.16-3.21-7.16-7.16-7.16Z"/>
        <path class="cls-1" d="M20.08,26.52c-3.95,0-7.16,3.21-7.16,7.16s3.21,7.16,7.16,7.16,7.16-3.21,7.16-7.16-3.21-7.16-7.16-7.16Z"/>
        <path class="cls-1" d="M20.08,43.67c-3.95,0-7.16,3.21-7.16,7.16s3.21,7.16,7.16,7.16,7.16-3.21,7.16-7.16-3.21-7.16-7.16-7.16Z"/>
        <circle class="cls-1" cx="65.05" cy="16.52" r="7.16"/>
        <path class="cls-1" d="M90.9,9.36c-3.95,0-7.16,3.21-7.16,7.16s3.21,7.16,7.16,7.16,7.16-3.21,7.16-7.16-3.21-7.16-7.16-7.16Z"/>
        <path class="cls-1" d="M77.97,26.52c-3.95,0-7.16,3.21-7.16,7.16s3.21,7.16,7.16,7.16,7.16-3.21,7.16-7.16-3.21-7.16-7.16-7.16Z"/>
        <path class="cls-1" d="M65.05,43.67c-3.95,0-7.16,3.21-7.16,7.16s3.21,7.16,7.16,7.16,7.16-3.21,7.16-7.16-3.21-7.16-7.16-7.16Z"/>
        <path class="cls-1" d="M90.9,43.67c-3.95,0-7.16,3.21-7.16,7.16s3.21,7.16,7.16,7.16,7.16-3.21,7.16-7.16-3.21-7.16-7.16-7.16Z"/>
        <path class="cls-1" d="M110.56,23.68c3.95,0,7.16-3.21,7.16-7.16s-3.21-7.16-7.16-7.16-7.16,3.21-7.16,7.16,3.21,7.16,7.16,7.16Z"/>
        <path class="cls-1" d="M123.48,26.52c-3.95,0-7.16,3.21-7.16,7.16s3.21,7.16,7.16,7.16,7.16-3.21,7.16-7.16-3.21-7.16-7.16-7.16Z"/>
        <path class="cls-1" d="M110.56,43.67c-3.95,0-7.16,3.21-7.16,7.16s3.21,7.16,7.16,7.16,7.16-3.21,7.16-7.16-3.21-7.16-7.16-7.16Z"/>
        <path class="cls-1" d="M136.4,43.67c-3.95,0-7.16,3.21-7.16,7.16s3.21,7.16,7.16,7.16,7.16-3.21,7.16-7.16-3.21-7.16-7.16-7.16Z"/>
      </g>
    </g>
  </g>
</svg>