<?xml version="1.0" encoding="UTF-8"?>
<svg id="_레이어_2" data-name="레이어_2" xmlns="http://www.w3.org/2000/svg" viewBox="0 0 223.43 89.77">
  <defs>
    <style>
      .cls-1 {
        fill: #3c3a3a;
      }

      .cls-2 {
        fill: #eb8cb7;
      }
    </style>
  </defs>
  <g id="_레이어_1-2" data-name="레이어_1">
    <g>
      <path class="cls-1" d="M223.42,54.7c.2,6.23-4.48,11.52-10.69,12.08-6.21.57-19.13,1.75-21.33,3.49-.31.46-.98,2.34-1.95,8.24l-.22,1.37c-.9,5.55-5.62,9.69-11.24,9.86-.13,0-.25.01-.38.01-5.46,0-10.23-3.79-11.46-9.15l-.34-1.53c-.35-1.54-.82-3.61-1.18-4.45-6.26-3.81-44.63-4.12-102.33-4.57-3.32-.03-6.31-1.44-8.44-3.68-1.8,1.23-3.96,1.99-6.27,2.06h-.37c-5.47,0-10.24-3.79-11.47-9.15l-.3-1.37c-1.38-6.05-2.19-7.89-2.64-8.37-2.12-1.7-15.81-2.42-21.66-2.72C5.05,46.51.21,41.56.02,35.46v-.42c-.2-6.22,4.48-11.51,10.67-12.07,6.21-.56,19.13-1.75,21.33-3.49.31-.46.99-2.34,1.95-8.24l.22-1.37c.9-5.55,5.62-9.68,11.24-9.86h.38c5.47,0,10.24,3.78,11.46,9.15l.35,1.52c.35,1.57.84,3.66,1.18,4.49,6.15,3.88,44.59,4.44,102.43,5.29,3.07.04,5.84,1.27,7.92,3.23,1.88-1.41,4.19-2.27,6.69-2.35.13,0,.25-.01.38-.01,5.46,0,10.24,3.79,11.46,9.16l.31,1.36c1.37,6.06,2.19,7.9,2.63,8.37,2.12,1.7,15.82,2.42,21.67,2.73,6.1.31,10.94,5.25,11.13,11.35v.42Z"/>
      <path class="cls-2" d="M161.05,32.2c-110.96-1.62-111.04-1.95-114.9-18.92l-.35-1.53-.22,1.37c-2.82,17.35-5.35,18.96-33.82,21.55v.42c28.61,1.5,31.24,3.02,35.16,20.24l.31,1.36.25-1.54c2.78-17.1,2.83-17.43,113.58-22.53v-.42Z"/>
      <path class="cls-2" d="M211.66,54.67c-28.6-1.5-31.23-3.02-35.15-20.24l-.31-1.36-.25,1.54c-2.78,17.1-2.83,17.43-113.56,23.28l.02.42c110.94.88,111.01,1.2,114.87,18.17l.35,1.52.22-1.37c2.82-17.35,5.35-18.96,33.82-21.55v-.42Z"/>
    </g>
  </g>
</svg>